<?xml version="1.0" standalone="no"?>
<!DOCTYPE svg PUBLIC "-//W3C//DTD SVG 20010904//EN"
 "http://www.w3.org/TR/2001/REC-SVG-20010904/DTD/svg10.dtd">
<svg version="1.0" xmlns="http://www.w3.org/2000/svg"
 width="1200.000000pt" height="714.000000pt" viewBox="0 0 1200.000000 714.000000"
 preserveAspectRatio="xMidYMid meet">

<g transform="translate(0.000000,714.000000) scale(0.100000,-0.100000)"
fill="#000000" stroke="none">
<path d="M5185 7130 c-484 -14 -816 -42 -937 -80 -110 -34 -200 -107 -247
-199 -73 -142 -96 -607 -88 -1741 7 -978 23 -1204 92 -1341 50 -98 143 -165
266 -193 363 -82 2309 -97 2830 -21 126 18 197 46 258 101 83 75 121 172 140
364 36 344 50 1743 23 2240 -24 445 -40 532 -111 632 -110 153 -284 196 -906
228 -279 14 -998 19 -1320 10z m1625 -730 c19 -19 20 -33 20 -368 0 -298 -2
-351 -16 -370 l-15 -22 -344 0 -344 0 -3 -346 c-3 -329 -4 -346 -22 -360 -16
-11 -82 -14 -358 -14 l-337 0 -3 -338 c-2 -269 -6 -342 -17 -355 -12 -15 -51
-17 -370 -17 -264 0 -360 3 -369 12 -9 9 -12 106 -12 374 0 316 2 365 16 378
13 14 60 16 360 16 l344 0 0 343 c0 253 3 346 12 355 9 9 103 12 360 12 l348
0 0 344 0 345 22 15 c19 14 71 16 365 16 330 0 344 -1 363 -20z"/>
<path d="M1875 2574 c-93 -6 -191 -12 -217 -13 l-48 -1 0 -1255 0 -1255 234 0
234 0 5 552 c6 621 11 681 67 768 80 125 221 200 375 200 94 0 155 -22 203
-74 83 -90 92 -171 92 -888 l0 -558 235 0 235 0 0 608 c0 358 -4 642 -10 692
-24 191 -76 316 -175 415 -70 70 -150 115 -260 147 -67 19 -103 22 -220 21
-121 0 -152 -4 -230 -27 -107 -32 -181 -71 -255 -131 l-55 -45 -3 430 c-2 402
-3 430 -20 429 -9 -1 -93 -8 -187 -15z"/>
<path d="M8730 2258 c-134 -19 -313 -95 -402 -170 l-26 -23 60 -160 c34 -88
62 -162 64 -163 1 -2 32 17 67 42 123 88 271 136 419 137 119 1 178 -19 243
-85 60 -60 75 -102 75 -209 0 -104 -28 -189 -98 -291 -31 -47 -230 -280 -441
-518 l-383 -433 6 -89 c3 -49 6 -127 6 -173 l0 -83 650 0 c631 0 650 1 650 19
0 23 18 211 26 269 l5 42 -415 0 c-258 0 -416 4 -416 10 0 5 118 134 263 288
273 290 343 370 421 486 110 161 155 288 163 452 9 176 -39 335 -132 442 -84
97 -227 173 -387 206 -86 18 -308 20 -418 4z"/>
<path d="M10212 1518 l-442 -712 0 -143 0 -143 485 0 485 0 0 -240 0 -240 215
0 215 0 0 240 0 240 124 0 123 0 7 102 c4 57 9 131 12 165 l6 62 -133 3 -134
3 -3 688 -2 687 -258 0 -258 0 -442 -712z m528 -223 l0 -445 -261 0 c-245 0
-261 1 -254 18 7 19 508 872 513 872 1 0 2 -200 2 -445z"/>
<path d="M11703 2219 c-55 -10 -91 -30 -129 -71 -51 -53 -68 -95 -68 -168 -1
-228 272 -332 426 -162 155 172 0 443 -229 401z m121 -21 c54 -16 128 -90 144
-144 25 -86 9 -165 -46 -226 -143 -159 -402 -60 -402 152 0 71 26 126 81 173
64 56 137 70 223 45z"/>
<path d="M11673 2113 c-23 -4 -23 -7 -23 -139 l0 -134 30 0 c30 0 30 1 30 55
0 51 2 55 24 55 29 0 41 -14 58 -66 11 -33 18 -39 45 -42 l32 -3 -16 48 c-9
26 -22 55 -30 64 -12 15 -11 20 11 42 73 73 -26 146 -161 120z m117 -58 c16
-19 4 -52 -23 -59 -49 -13 -57 -8 -57 34 0 39 1 40 34 40 18 0 39 -7 46 -15z"/>
<path d="M800 1934 c-254 -37 -399 -102 -541 -243 -173 -174 -252 -396 -252
-711 1 -435 154 -729 458 -875 161 -77 350 -107 554 -87 147 15 216 33 316 83
125 62 115 37 90 242 -13 98 -25 180 -27 183 -3 2 -36 -14 -74 -35 -143 -82
-339 -125 -474 -102 -219 36 -345 200 -369 484 -10 116 1 274 24 361 37 139
138 262 252 307 47 18 78 23 168 23 126 1 212 -20 346 -81 44 -20 81 -34 83
-32 5 6 106 326 106 337 0 16 -138 79 -231 106 -127 36 -325 55 -429 40z"/>
<path d="M4180 1929 c-390 -52 -652 -332 -716 -762 -20 -132 -15 -328 11 -451
77 -367 307 -602 665 -679 72 -15 133 -20 255 -21 175 0 279 15 420 61 82 26
229 95 239 111 6 11 -53 323 -64 335 -3 4 -49 -13 -101 -37 -186 -88 -407
-130 -565 -107 -145 21 -258 94 -327 212 -29 50 -67 183 -67 236 l0 33 601 0
602 0 -6 188 c-4 115 -12 216 -22 262 -69 314 -266 529 -549 600 -95 24 -271
33 -376 19z m282 -364 c67 -24 132 -85 167 -158 29 -60 51 -152 51 -209 l0
-28 -371 0 -372 0 7 55 c20 169 131 310 276 350 66 18 174 14 242 -10z"/>
<path d="M5786 1929 c-166 -22 -301 -77 -394 -163 -100 -93 -142 -200 -142
-361 0 -163 42 -269 146 -364 84 -77 178 -128 387 -211 226 -89 306 -130 345
-174 60 -68 55 -157 -12 -221 -45 -44 -87 -60 -182 -71 -126 -13 -396 45 -561
121 -47 22 -79 31 -83 25 -10 -17 -51 -340 -44 -352 9 -14 118 -62 185 -82
249 -72 568 -80 775 -20 122 35 177 67 259 149 109 108 155 225 155 395 0 156
-44 268 -145 365 -86 83 -182 135 -433 232 -312 121 -342 142 -342 239 0 108
74 150 265 148 140 -1 248 -24 395 -83 l95 -38 57 161 c32 89 56 166 54 172
-2 6 -40 25 -83 43 -206 82 -479 118 -697 90z"/>
<path d="M7280 1930 c-303 -38 -489 -177 -536 -399 -17 -84 -17 -168 0 -252
43 -200 174 -314 516 -446 250 -97 347 -149 376 -204 22 -44 15 -139 -13 -177
-27 -36 -94 -69 -168 -83 -140 -26 -418 31 -616 125 l-67 31 -22 -165 c-12
-91 -24 -173 -26 -182 -9 -31 154 -99 314 -133 193 -40 488 -37 642 5 272 76
423 272 423 550 0 165 -44 272 -154 374 -82 76 -199 138 -396 212 -214 80
-329 138 -353 177 -37 59 -20 145 34 181 38 24 132 46 202 46 122 0 311 -44
450 -105 l52 -23 60 167 60 166 -44 23 c-69 35 -210 79 -314 96 -115 20 -331
28 -420 16z"/>
</g>
</svg>
