<?xml version="1.0" standalone="no"?>
<!DOCTYPE svg PUBLIC "-//W3C//DTD SVG 20010904//EN"
 "http://www.w3.org/TR/2001/REC-SVG-20010904/DTD/svg10.dtd">
<svg version="1.0" xmlns="http://www.w3.org/2000/svg"
 width="1200.000000pt" height="630.000000pt" viewBox="0 0 1200.000000 630.000000"
 preserveAspectRatio="xMidYMid meet">

<g transform="translate(0.000000,630.000000) scale(0.100000,-0.100000)"
fill="#000000" stroke="none">
<path d="M0 3150 l0 -3150 6000 0 6000 0 0 3150 0 3150 -6000 0 -6000 0 0
-3150z m4760 625 l0 -234 46 49 c121 130 362 130 497 1 65 -61 79 -100 88
-241 4 -69 8 -250 9 -402 l0 -278 -135 0 -134 0 -3 343 c-3 323 -4 344 -24
382 -12 24 -34 47 -55 57 -73 38 -193 12 -238 -50 -48 -68 -51 -95 -51 -423
l0 -309 -130 0 -130 0 0 670 0 670 130 0 130 0 0 -235z m4060 -435 l0 -670
-130 0 -130 0 0 670 0 670 130 0 130 0 0 -670z m-4714 319 c150 -46 227 -141
258 -316 l6 -33 -133 0 -132 0 -20 52 c-23 60 -62 92 -125 102 -93 15 -174
-36 -211 -132 -18 -47 -22 -77 -22 -177 0 -175 33 -251 125 -290 82 -34 182
-5 216 62 11 21 23 53 27 71 l7 32 129 0 129 0 0 -30 c0 -79 -81 -219 -165
-282 -146 -111 -417 -112 -567 -2 -228 165 -238 654 -18 857 118 109 311 143
496 86z m1980 20 c227 -41 363 -230 364 -506 l0 -83 -341 0 -341 0 7 -42 c22
-131 95 -197 218 -198 74 0 122 22 156 71 l26 38 133 1 132 0 -6 -27 c-12 -49
-45 -105 -92 -155 -89 -95 -197 -138 -345 -138 -141 1 -218 25 -319 101 -109
82 -157 191 -165 379 -6 136 11 233 58 327 89 183 290 273 515 232z m1039 -9
c160 -41 242 -124 261 -264 l7 -46 -131 0 -130 0 -6 33 c-12 64 -69 97 -169
97 -105 0 -171 -51 -147 -115 13 -34 48 -48 228 -91 216 -51 298 -94 350 -183
24 -41 27 -56 27 -136 0 -75 -4 -98 -24 -137 -67 -132 -200 -192 -426 -191
-213 1 -349 64 -414 192 -26 50 -43 151 -27 157 7 3 65 3 131 2 l118 -3 14
-39 c28 -81 74 -107 197 -107 131 0 195 40 170 108 -15 43 -52 60 -229 107
-93 24 -191 53 -217 64 -59 26 -125 85 -144 131 -23 53 -20 169 5 225 42 97
154 184 261 205 83 16 212 12 295 -9z m990 0 c43 -11 97 -31 121 -45 75 -44
128 -126 140 -219 l7 -46 -132 0 c-118 0 -131 2 -131 18 0 31 -40 83 -75 98
-44 18 -146 18 -190 0 -67 -28 -83 -97 -30 -132 13 -9 97 -34 187 -56 188 -46
267 -80 326 -139 130 -132 76 -379 -103 -463 -69 -33 -159 -49 -275 -49 -230
1 -361 65 -426 208 -12 27 -24 70 -26 95 l-3 45 130 0 c122 0 130 -1 133 -20
16 -89 76 -126 203 -126 91 0 127 9 159 41 26 26 25 63 -2 94 -18 20 -54 34
-153 61 -313 86 -374 116 -416 202 -34 69 -32 168 3 245 29 62 92 130 150 159
102 52 267 64 403 29z m1095 -15 c0 -10 203 -690 209 -703 4 -7 52 148 108
345 l100 358 136 3 c76 1 137 -1 137 -4 0 -14 -343 -993 -391 -1115 -93 -239
-120 -261 -321 -267 l-128 -4 0 106 0 106 71 0 c64 0 73 3 99 28 15 16 34 47
41 70 12 41 10 49 -166 550 -98 279 -180 513 -183 520 -3 9 29 12 142 12 80 0
146 -2 146 -5z"/>
<path d="M5884 3451 c-54 -33 -104 -116 -104 -172 0 -18 12 -19 200 -19 223 0
211 -5 189 73 -13 47 -63 106 -106 123 -48 21 -142 18 -179 -5z"/>
</g>
</svg>
