<?xml version="1.0" standalone="no"?>
<!DOCTYPE svg PUBLIC "-//W3C//DTD SVG 20010904//EN"
 "http://www.w3.org/TR/2001/REC-SVG-20010904/DTD/svg10.dtd">
<svg version="1.0" xmlns="http://www.w3.org/2000/svg"
 width="544.000000pt" height="152.000000pt" viewBox="0 0 544.000000 152.000000"
 preserveAspectRatio="xMidYMid meet">

<g transform="translate(0.000000,152.000000) scale(0.100000,-0.100000)"
fill="#000000" stroke="none">
<path d="M642 1454 c32 -34 58 -102 58 -152 0 -83 -50 -168 -124 -207 -20 -11
-36 -22 -36 -25 0 -3 20 -28 45 -57 46 -53 54 -79 35 -127 -9 -26 -10 -26
-125 -26 l-115 0 0 -29 c0 -27 3 -29 59 -40 79 -16 125 -47 129 -89 4 -44 -55
-347 -78 -400 -28 -64 -75 -82 -214 -82 -68 0 -134 6 -174 16 -35 9 -66 14
-68 11 -3 -3 -8 -39 -11 -80 l-6 -75 31 -16 c84 -43 154 -51 467 -51 312 0
384 8 465 50 27 14 30 20 30 63 l0 48 -52 17 c-115 36 -225 133 -284 249 -79
156 -67 368 30 514 l34 51 -26 16 c-59 36 -58 33 -23 73 19 21 40 52 47 70 19
44 18 136 -2 182 -16 39 -66 97 -99 114 -15 8 -13 3 7 -18z"/>
<path d="M1035 1096 c-128 -31 -225 -107 -281 -221 -31 -63 -37 -86 -42 -163
-6 -111 19 -206 74 -278 51 -66 79 -89 163 -132 75 -37 75 -37 200 -37 98 0
137 4 174 18 l47 19 0 89 c0 103 -3 106 -78 62 -41 -24 -58 -28 -127 -28 -94
0 -140 20 -198 84 -37 41 -67 119 -67 176 0 54 28 129 65 172 50 59 114 86
200 87 62 0 78 -4 128 -32 32 -18 62 -30 67 -27 16 10 12 171 -3 183 -43 36
-226 51 -322 28z"/>
<path d="M1466 1095 c-9 -25 -7 -798 3 -813 5 -9 31 -12 92 -10 l84 3 5 195
c6 243 20 278 112 282 100 3 111 -23 116 -280 l4 -203 87 3 86 3 3 205 c3 231
-5 290 -49 350 -42 58 -94 80 -194 80 -66 0 -87 -4 -122 -24 l-42 -24 -3 121
-3 122 -86 3 c-72 2 -88 0 -93 -13z"/>
<path d="M2997 910 c-148 -38 -223 -156 -173 -273 29 -69 86 -99 233 -122 137
-22 175 -53 122 -101 -30 -27 -173 -25 -246 3 -28 11 -55 18 -61 14 -16 -10
-55 -110 -49 -125 17 -44 262 -71 377 -42 123 31 180 94 180 197 0 108 -59
155 -239 189 -143 27 -178 53 -132 99 30 30 101 36 179 16 121 -31 109 -33
137 26 14 30 25 59 25 66 0 6 -26 21 -57 33 -66 25 -232 36 -296 20z"/>
<path d="M2339 896 c-136 -48 -206 -165 -197 -329 7 -135 60 -222 166 -274 53
-26 66 -28 172 -28 79 1 132 6 170 18 87 27 87 26 60 92 -13 31 -29 59 -37 62
-8 3 -33 -3 -56 -13 -29 -13 -64 -19 -118 -19 -86 0 -115 14 -156 75 -42 61
-45 60 192 60 l215 0 0 63 c0 132 -52 226 -152 276 -54 27 -71 31 -142 31 -45
-1 -97 -7 -117 -14z m182 -142 c17 -8 37 -30 45 -49 27 -65 28 -65 -116 -65
-124 0 -130 1 -130 20 0 33 28 78 58 94 36 20 105 20 143 0z"/>
<path d="M3547 893 c-122 -46 -177 -151 -133 -257 26 -63 90 -96 226 -117 106
-16 140 -31 140 -64 0 -51 -117 -72 -230 -39 -104 29 -95 31 -119 -26 -12 -28
-21 -59 -19 -68 8 -43 220 -75 340 -53 79 15 131 44 172 94 27 34 31 47 31
100 0 49 -5 69 -23 95 -38 53 -74 67 -265 103 -93 17 -120 65 -56 99 34 18
140 13 200 -9 30 -12 55 -21 56 -21 8 0 53 102 53 119 0 32 -77 53 -210 57
-93 4 -124 1 -163 -13z"/>
<path d="M4183 654 c-66 -32 -103 -98 -103 -183 1 -136 99 -223 232 -208 69 9
88 22 88 61 0 44 -6 48 -43 25 -63 -38 -152 -17 -183 43 -21 40 -22 114 -3
152 33 68 128 93 188 48 34 -25 41 -20 41 25 0 29 -5 36 -35 49 -54 22 -123
18 -182 -12z"/>
<path d="M4545 661 c-80 -36 -120 -111 -113 -212 5 -69 42 -130 98 -164 49
-28 151 -28 200 0 107 64 134 229 52 327 -34 40 -95 68 -152 68 -25 0 -63 -9
-85 -19z m152 -67 c77 -48 83 -179 10 -240 -27 -23 -38 -26 -86 -22 -45 4 -59
10 -82 36 -107 120 26 309 158 226z"/>
<path d="M4887 673 c-4 -3 -7 -96 -7 -205 l0 -198 39 0 40 0 3 156 c3 173 8
184 73 184 69 0 84 -41 85 -222 l0 -118 35 0 35 0 0 134 c0 131 9 183 33 198
22 14 75 8 98 -11 23 -18 24 -25 27 -170 l3 -151 41 0 41 0 -5 153 c-5 170
-15 203 -71 237 -52 32 -141 25 -181 -15 -16 -17 -18 -16 -41 5 -32 30 -110
38 -153 16 -28 -15 -32 -15 -32 -1 0 15 -50 22 -63 8z"/>
<path d="M3982 348 c-7 -7 -12 -24 -12 -38 0 -31 17 -50 45 -50 28 0 45 19 45
50 0 31 -17 50 -45 50 -12 0 -26 -5 -33 -12z"/>
</g>
</svg>
