<?xml version="1.0" standalone="no"?>
<!DOCTYPE svg PUBLIC "-//W3C//DTD SVG 20010904//EN"
 "http://www.w3.org/TR/2001/REC-SVG-20010904/DTD/svg10.dtd">
<svg version="1.0" xmlns="http://www.w3.org/2000/svg"
 width="1020.000000pt" height="660.000000pt" viewBox="0 0 1020.000000 660.000000"
 preserveAspectRatio="xMidYMid meet">

<g transform="translate(0.000000,660.000000) scale(0.100000,-0.100000)"
fill="#000000" stroke="none">
<path d="M4650 6530 c-815 -49 -1581 -209 -2210 -460 -159 -63 -320 -136 -320
-144 0 -11 173 -128 280 -190 317 -180 761 -334 1250 -430 266 -52 256 -52
271 -24 51 98 205 243 391 369 l113 75 17 198 c9 108 18 207 20 219 2 17 38
-21 168 -180 l165 -203 85 0 c403 0 949 -203 1202 -448 l68 -65 83 12 c585 87
1187 283 1557 507 111 67 240 160 240 173 0 28 -708 280 -1080 385 -459 129
-592 152 -1125 197 -169 14 -988 20 -1175 9z"/>
<path d="M8080 5869 c-114 -99 -401 -264 -620 -357 -310 -131 -753 -256 -1130
-318 -58 -10 -107 -19 -109 -21 -2 -2 9 -20 26 -41 89 -112 182 -281 221 -402
29 -89 52 -188 52 -227 0 -33 1 -33 48 -33 61 0 378 25 647 50 763 73 1484
189 2080 335 121 29 231 58 245 63 23 9 20 13 -94 126 -206 204 -507 428 -799
595 -122 70 -505 261 -521 261 -6 -1 -27 -15 -46 -31z"/>
<path d="M1905 5827 c-231 -122 -484 -285 -684 -441 -227 -177 -539 -470 -510
-480 76 -27 433 -109 694 -160 465 -91 1059 -176 1588 -226 l117 -11 61 61
c34 33 163 142 288 242 311 249 413 338 409 356 -2 11 -40 22 -148 43 -694
130 -1263 352 -1632 635 -31 24 -58 44 -60 44 -2 0 -57 -29 -123 -63z"/>
<path d="M9420 4804 c-721 -191 -1787 -351 -2710 -409 -52 -3 -114 -8 -137
-11 l-42 -5 -6 -57 c-14 -136 -40 -233 -130 -480 -52 -144 -95 -267 -95 -272
0 -7 668 -10 1915 -10 l1915 0 0 54 c0 81 -27 267 -54 381 -65 264 -183 508
-363 750 -64 87 -82 105 -103 104 -14 -1 -99 -21 -190 -45z"/>
<path d="M569 4772 c-192 -232 -338 -477 -417 -703 -43 -121 -81 -302 -89
-414 l-6 -95 1986 0 1986 0 138 138 c194 194 347 302 520 367 47 18 90 41 96
50 27 49 -51 152 -135 177 -54 16 -284 15 -392 -1 -49 -7 -134 -32 -222 -66
-296 -114 -494 -160 -689 -160 -133 0 -143 1 -198 28 -43 22 -63 39 -83 73
-34 58 -43 150 -20 214 8 24 14 45 12 47 -1 1 -92 12 -202 23 -739 76 -1431
192 -2005 336 -119 30 -218 54 -220 54 -2 0 -29 -31 -60 -68z"/>
<path d="M64 3393 c21 -261 110 -536 257 -790 83 -144 192 -300 296 -422 l29
-34 115 45 c533 212 1347 382 2294 477 186 19 560 51 595 51 13 0 18 22 28
106 21 188 104 393 232 572 l59 82 -1956 0 -1956 0 7 -87z"/>
<path d="M6259 3453 c-6 -16 -27 -89 -46 -163 -30 -113 -36 -153 -37 -245 -1
-110 -1 -110 41 -195 64 -130 50 -121 199 -131 1260 -84 2347 -287 2971 -554
l122 -52 64 76 c186 222 365 488 419 620 67 165 117 381 134 589 l7 82 -1932
0 -1931 0 -11 -27z"/>
<path d="M6358 2622 c12 -16 50 -56 84 -87 l63 -59 3 -88 4 -88 -1377 2 -1377
3 -19 55 c-21 59 -53 181 -64 244 l-6 39 -107 -7 c-557 -35 -1339 -141 -1861
-252 -405 -86 -991 -265 -991 -302 0 -14 263 -267 375 -360 272 -227 599 -451
887 -606 l88 -48 99 76 c468 352 1259 606 2183 701 81 8 153 15 160 15 23 1
-114 83 -192 115 -95 40 -197 71 -330 100 l-105 23 1255 1 1255 0 -94 -24
c-52 -14 -135 -45 -185 -69 -85 -42 -226 -138 -226 -154 0 -4 55 -14 123 -21
146 -15 427 -60 598 -97 639 -134 1205 -370 1516 -631 28 -23 54 -43 58 -43 3
0 59 30 123 66 229 130 488 310 692 479 97 81 460 433 460 446 0 8 -135 67
-265 114 -576 208 -1581 389 -2580 464 -77 6 -169 14 -204 17 l-64 6 21 -30z"/>
<path d="M4495 1773 c-22 -2 -107 -10 -190 -19 -487 -48 -1011 -163 -1391
-304 -263 -97 -604 -280 -743 -397 l-34 -29 134 -63 c492 -233 975 -370 1224
-346 l75 7 0 224 0 224 155 0 c553 0 868 152 914 441 20 123 13 175 -32 242
-19 28 -21 28 -112 20z"/>
<path d="M5779 1749 c-24 -46 -50 -136 -55 -198 -19 -203 106 -356 351 -430
121 -37 256 -51 476 -51 l206 0 18 -240 c15 -196 21 -240 33 -240 26 0 265 50
362 76 131 35 385 118 505 166 134 53 415 180 415 188 0 3 -30 29 -67 57 -438
332 -1158 572 -2018 673 -211 25 -212 25 -226 -1z"/>
<path d="M3920 510 l0 -440 130 0 130 0 0 180 0 180 140 0 140 0 0 90 0 90
-140 0 -140 0 0 75 0 75 140 0 140 0 0 95 0 95 -270 0 -270 0 0 -440z"/>
<path d="M4560 510 l0 -440 125 0 125 0 0 440 0 440 -125 0 -125 0 0 -440z"/>
<path d="M4930 511 l0 -441 218 0 c243 0 304 10 376 59 47 33 84 82 117 156
19 41 24 73 27 178 5 136 -7 222 -38 294 -27 61 -102 137 -163 164 -49 23 -65
24 -294 27 l-243 4 0 -441z m407 212 c59 -27 78 -84 78 -223 -1 -178 -30 -218
-167 -228 l-68 -5 0 237 0 236 61 0 c36 0 75 -7 96 -17z"/>
<path d="M5740 510 l0 -440 300 0 300 0 0 100 0 100 -160 0 -160 0 0 85 0 85
160 0 160 0 0 90 0 90 -160 0 -160 0 0 70 0 70 160 0 160 0 0 95 0 95 -300 0
-300 0 0 -440z"/>
</g>
</svg>
