<?xml version="1.0" standalone="no"?>
<!DOCTYPE svg PUBLIC "-//W3C//DTD SVG 20010904//EN"
 "http://www.w3.org/TR/2001/REC-SVG-20010904/DTD/svg10.dtd">
<svg version="1.0" xmlns="http://www.w3.org/2000/svg"
 width="3300.000000pt" height="1353.000000pt" viewBox="0 0 3300.000000 1353.000000"
 preserveAspectRatio="xMidYMid meet">

<g transform="translate(0.000000,1353.000000) scale(0.100000,-0.100000)"
fill="#000000" stroke="none">
<path d="M9005 12190 c-16 -5 -73 -13 -125 -20 -160 -19 -377 -54 -590 -96
-452 -89 -908 -275 -1241 -506 l-56 -39 -196 12 c-229 13 -1009 7 -1192 -10
-232 -21 -341 -32 -415 -41 -131 -17 -291 -40 -339 -50 -25 -4 -75 -14 -111
-20 -36 -6 -83 -15 -105 -20 -22 -5 -67 -14 -100 -21 -33 -7 -112 -25 -175
-41 -63 -17 -133 -34 -155 -38 -104 -23 -459 -139 -615 -202 -100 -40 -109
-44 -150 -61 -19 -8 -60 -25 -90 -38 -95 -40 -406 -197 -523 -265 -719 -419
-1304 -994 -1732 -1704 -100 -166 -280 -529 -350 -705 -26 -66 -51 -129 -56
-140 -14 -35 -77 -217 -94 -275 -19 -63 -41 -143 -74 -262 -65 -240 -135 -647
-163 -953 -16 -172 -22 -691 -9 -805 6 -52 15 -147 21 -210 11 -106 36 -276
61 -410 6 -30 14 -75 19 -100 12 -66 75 -313 104 -405 13 -44 32 -105 41 -135
16 -52 77 -221 95 -265 4 -11 14 -36 21 -55 7 -19 28 -68 46 -108 18 -39 33
-74 33 -77 0 -8 142 -292 177 -355 76 -135 136 -236 149 -251 8 -8 14 -19 14
-23 0 -4 35 -58 77 -119 389 -566 860 -1032 1423 -1410 186 -125 221 -147 397
-248 191 -109 461 -240 678 -328 11 -5 31 -13 45 -19 51 -21 206 -80 240 -91
19 -7 91 -30 160 -52 120 -39 236 -73 365 -105 33 -8 85 -21 115 -29 78 -21
262 -58 370 -75 412 -65 640 -84 1000 -84 267 -1 455 10 675 39 166 21 218 29
408 65 173 32 359 81 567 150 864 286 1543 773 2038 1462 34 47 66 98 72 113
27 71 -28 145 -109 145 -39 0 -47 -6 -164 -118 -225 -217 -392 -354 -632 -522
-560 -391 -1242 -669 -1940 -789 -679 -116 -1420 -87 -2090 84 -261 66 -585
176 -775 262 -30 14 -73 32 -95 41 -87 34 -415 206 -512 268 -29 19 -56 34
-59 34 -11 0 -287 186 -379 255 -197 149 -358 289 -541 470 -252 251 -380 402
-611 725 -27 37 -183 280 -183 285 0 2 -20 37 -44 77 -73 124 -200 385 -266
548 -12 30 -28 69 -35 85 -14 30 -78 213 -96 270 -37 122 -59 196 -69 235 -6
25 -16 61 -21 80 -9 39 -54 257 -69 335 -9 51 -21 143 -41 323 -15 137 -15
618 0 757 25 235 60 452 90 565 6 19 21 80 35 135 108 433 361 968 664 1410
153 223 229 321 381 498 522 603 1175 1041 1926 1292 140 46 214 68 290 86 22
6 56 14 75 18 134 32 312 67 410 80 41 6 109 15 150 21 472 65 1153 42 1724
-58 68 -12 120 -16 137 -12 15 5 110 56 211 116 170 99 247 144 388 223 95 53
438 221 452 221 8 0 18 4 24 9 8 8 171 65 259 90 90 26 178 42 186 34 5 -5
-12 -67 -37 -138 -25 -72 -54 -155 -64 -185 -10 -30 -46 -134 -80 -230 -110
-314 -130 -378 -130 -414 0 -35 13 -63 66 -148 15 -24 32 -52 38 -63 12 -22
247 -416 489 -820 83 -137 158 -263 167 -280 10 -16 66 -111 125 -210 59 -99
116 -194 126 -212 10 -17 30 -51 45 -75 15 -24 32 -52 38 -63 17 -31 332 -560
391 -655 29 -47 126 -209 215 -360 90 -151 236 -396 325 -545 89 -148 255
-427 369 -620 115 -192 231 -385 257 -428 27 -43 49 -79 49 -81 0 -2 36 -63
80 -136 92 -152 92 -156 60 -317 -58 -290 -173 -515 -355 -697 -101 -101 -185
-162 -319 -230 -107 -55 -316 -129 -338 -121 -7 3 -29 37 -48 77 -66 136 -205
338 -344 503 -174 206 -621 667 -781 804 -178 152 -433 336 -970 697 -1030
694 -1598 1144 -2001 1584 -210 230 -377 489 -446 693 -58 173 -69 289 -42
435 9 47 13 100 10 118 -9 43 -57 84 -99 84 -42 0 -95 -33 -108 -67 -46 -121
-70 -378 -51 -553 54 -504 372 -1047 965 -1649 356 -360 652 -614 1376 -1179
736 -575 812 -638 1101 -924 481 -473 890 -962 1073 -1279 31 -55 82 -84 130
-74 33 7 227 69 262 84 11 5 63 26 115 46 659 262 1153 649 1368 1070 65 128
96 214 122 335 6 30 15 74 21 98 12 56 12 287 -1 349 -34 165 -43 197 -70 243
-17 28 -30 52 -30 54 0 2 -36 68 -80 146 -44 78 -80 144 -80 146 0 2 -13 25
-29 51 -15 27 -44 77 -63 113 -19 36 -57 106 -85 155 -27 50 -66 119 -85 155
-47 87 -83 151 -129 233 -22 38 -39 70 -39 72 0 2 -14 28 -31 57 -18 29 -52
91 -77 138 -25 47 -71 131 -103 188 -33 57 -59 105 -59 107 0 2 -17 34 -39 72
-38 69 -84 151 -129 233 -13 25 -32 59 -42 75 -9 17 -34 62 -55 100 -21 39
-57 104 -80 145 -23 41 -61 111 -85 155 -24 44 -53 96 -65 115 -11 19 -38 69
-59 110 -22 41 -42 80 -47 85 -4 6 -21 35 -37 65 -16 30 -55 102 -87 160 -32
58 -69 125 -83 150 -13 25 -46 83 -72 130 -26 47 -66 121 -90 165 -23 44 -46
85 -50 90 -4 6 -29 51 -55 100 -26 50 -74 136 -107 193 -32 57 -58 105 -58
106 0 2 -25 47 -55 101 -30 53 -55 98 -55 101 0 2 -13 25 -29 51 -15 27 -44
77 -63 113 -19 36 -69 126 -110 200 -41 74 -92 167 -113 205 -21 39 -49 89
-63 113 l-25 43 22 87 c12 48 26 105 31 127 19 82 66 284 111 475 37 161 68
294 105 450 14 63 35 153 47 200 11 47 21 111 21 143 1 52 -2 60 -31 87 -29
27 -38 30 -95 29 -35 -1 -76 -5 -93 -9z"/>
<path d="M18080 6775 l0 -1425 170 0 170 0 0 713 0 712 32 55 c74 130 225 236
369 260 216 37 396 -44 460 -205 l24 -60 3 -737 3 -738 174 0 175 0 0 678 c0
374 -5 719 -10 771 -21 194 -75 328 -174 427 -103 102 -230 151 -416 161 -230
12 -417 -56 -577 -210 l-63 -60 0 541 0 542 -170 0 -170 0 0 -1425z"/>
<path d="M15267 8069 c-20 -11 -49 -38 -65 -61 -23 -35 -27 -52 -27 -112 0
-57 5 -78 23 -108 32 -51 81 -79 151 -85 135 -13 223 63 225 192 1 80 -34 144
-97 174 -58 28 -157 28 -210 0z"/>
<path d="M13180 6700 l0 -1350 820 0 820 0 0 145 0 145 -640 0 -640 0 0 1205
0 1205 -180 0 -180 0 0 -1350z"/>
<path d="M16717 7375 c-404 -77 -657 -378 -708 -844 -14 -128 -6 -353 16 -471
58 -309 219 -541 459 -660 132 -65 216 -83 396 -84 169 -1 223 9 352 64 237
101 429 331 454 544 l7 56 -160 0 -160 0 -17 -62 c-23 -85 -55 -136 -122 -197
-125 -115 -286 -155 -467 -116 -150 31 -263 120 -336 262 -89 176 -114 570
-51 817 38 149 134 292 236 352 102 60 247 85 364 64 205 -36 349 -188 385
-402 l6 -38 161 0 161 0 -7 70 c-17 192 -125 382 -280 498 -74 55 -198 114
-286 136 -92 24 -305 29 -403 11z"/>
<path d="M20845 7384 c-347 -57 -623 -319 -720 -686 -58 -219 -60 -505 -5
-723 26 -107 106 -265 174 -347 119 -143 280 -245 461 -290 132 -33 372 -32
500 1 111 29 174 56 262 114 66 43 176 149 221 213 l21 31 -103 80 -103 81
-84 -82 c-97 -93 -193 -148 -304 -171 -317 -66 -598 93 -700 399 -22 66 -47
231 -36 241 2 3 308 5 679 5 l675 0 -6 198 c-4 124 -12 223 -22 267 -98 434
-351 658 -755 670 -69 2 -138 1 -155 -1z m277 -303 c180 -62 291 -232 314
-479 l7 -72 -502 0 -501 0 0 23 c0 37 29 148 56 216 67 171 191 285 352 326
73 19 198 12 274 -14z"/>
<path d="M22780 7384 c-126 -23 -188 -42 -265 -79 -145 -70 -241 -163 -304
-295 -36 -74 -36 -76 -36 -206 l0 -130 38 -76 c87 -177 269 -277 676 -373 330
-79 441 -155 458 -317 19 -186 -158 -318 -427 -318 -252 0 -422 113 -470 310
l-16 65 -125 3 c-68 2 -144 0 -168 -3 l-44 -7 6 -62 c20 -217 194 -425 432
-517 108 -42 189 -58 321 -66 283 -15 536 66 689 221 97 99 145 222 145 371
-1 302 -197 471 -685 590 -299 72 -406 118 -460 194 -27 39 -30 50 -30 124 0
64 5 91 22 123 45 85 144 145 273 165 256 39 483 -92 516 -299 l7 -42 168 0
169 0 0 48 c0 241 -215 477 -505 552 -78 21 -322 36 -385 24z"/>
<path d="M24693 7376 c-251 -48 -429 -173 -522 -366 -36 -74 -36 -76 -36 -206
l0 -130 38 -76 c46 -94 124 -169 239 -228 103 -54 212 -90 433 -145 316 -78
412 -134 451 -262 63 -210 -118 -373 -416 -373 -258 0 -448 133 -476 333 l-6
47 -157 0 c-86 0 -162 -4 -170 -9 -20 -13 -8 -112 23 -195 81 -214 285 -376
546 -432 175 -38 411 -27 575 27 277 92 435 286 435 536 0 310 -188 474 -685
598 -314 78 -406 117 -460 193 -27 40 -30 51 -30 125 0 64 5 91 22 123 45 85
144 145 273 165 256 40 483 -91 516 -299 l7 -42 168 0 169 0 0 48 c0 241 -216
477 -505 552 -105 27 -329 35 -432 16z"/>
<path d="M27753 7376 c-279 -53 -495 -216 -620 -469 -77 -155 -110 -291 -120
-487 -31 -679 365 -1136 957 -1107 483 25 801 351 861 882 13 113 6 293 -16
419 -65 375 -313 658 -650 747 -103 27 -310 34 -412 15z m341 -296 c194 -66
334 -252 381 -505 24 -124 16 -393 -14 -512 -56 -224 -186 -385 -358 -445 -55
-18 -89 -23 -178 -23 -89 0 -123 5 -178 23 -132 46 -238 149 -307 297 -60 129
-72 188 -77 390 -4 157 -2 193 17 285 48 233 151 386 319 470 105 53 276 61
395 20z"/>
<path d="M29965 7378 c-114 -21 -258 -118 -333 -223 l-21 -30 -1 118 0 117
-170 0 -170 0 0 -1005 0 -1005 173 2 172 3 2 713 3 714 26 49 c33 59 99 129
157 162 82 48 150 62 300 61 l137 -1 0 157 0 158 -44 11 c-53 13 -160 13 -231
-1z"/>
<path d="M31115 7384 c-297 -48 -526 -267 -620 -591 -77 -262 -74 -641 7 -892
92 -289 263 -479 503 -558 71 -24 96 -27 225 -27 109 0 161 4 210 18 101 27
198 79 279 147 l74 62 -6 -149 c-3 -96 -12 -169 -22 -204 -51 -165 -147 -266
-305 -321 -87 -30 -293 -33 -385 -5 -101 30 -193 85 -279 167 l-81 76 -75 -85
c-110 -126 -105 -112 -64 -165 83 -107 268 -215 450 -264 87 -23 118 -26 259
-27 132 0 175 4 247 22 163 40 290 113 393 224 104 111 168 248 195 410 6 40
10 443 10 1101 l0 1037 -154 0 -153 0 -7 -46 c-3 -26 -6 -68 -6 -95 0 -85 -5
-86 -86 -10 -79 74 -177 128 -279 156 -60 16 -272 28 -330 19z m320 -299 c132
-28 243 -104 319 -219 l36 -54 0 -460 0 -460 -41 -60 c-78 -118 -180 -189
-314 -217 -168 -35 -327 0 -441 99 -85 73 -161 222 -189 371 -34 176 -28 412
15 582 81 321 316 481 615 418z"/>
<path d="M15200 6355 l0 -1005 170 0 170 0 0 1005 0 1005 -170 0 -170 0 0
-1005z"/>
<path d="M26237 5726 c-148 -55 -174 -278 -44 -364 36 -24 50 -27 121 -27 142
0 207 56 214 185 5 91 -30 159 -101 196 -41 22 -145 27 -190 10z"/>
</g>
</svg>
