<?xml version="1.0" standalone="no"?>
<!DOCTYPE svg PUBLIC "-//W3C//DTD SVG 20010904//EN"
 "http://www.w3.org/TR/2001/REC-SVG-20010904/DTD/svg10.dtd">
<svg version="1.0" xmlns="http://www.w3.org/2000/svg"
 width="318.000000pt" height="158.000000pt" viewBox="0 0 318.000000 158.000000"
 preserveAspectRatio="xMidYMid meet">

<g transform="translate(0.000000,158.000000) scale(0.100000,-0.100000)"
fill="#000000" stroke="none">
<path d="M576 1144 c-180 -44 -326 -187 -326 -321 l0 -33 60 0 c58 0 60 1 60
25 0 82 103 179 222 208 24 6 28 3 38 -28 7 -20 31 -51 61 -76 31 -26 61 -64
79 -99 16 -31 41 -71 56 -89 19 -23 24 -35 16 -43 -8 -8 -23 0 -52 25 -106 90
-194 85 -246 -15 -33 -63 -12 -117 85 -224 117 -128 177 -271 169 -405 l-3
-59 63 0 62 0 0 78 c0 166 -60 308 -198 466 -85 98 -87 130 -4 61 81 -67 154
-72 212 -14 53 54 52 128 -4 201 -18 24 -45 66 -59 93 -27 55 -59 93 -99 119
-25 17 -26 19 -12 51 16 38 6 78 -21 89 -26 10 -95 6 -159 -10z"/>
<path d="M1649 767 c7 -9 26 -17 41 -17 15 0 34 8 41 17 12 15 12 16 -6 8 -25
-10 -45 -10 -70 0 -18 8 -18 7 -6 -8z"/>
<path d="M3085 769 c-12 -19 5 -23 22 -6 16 16 16 17 1 17 -9 0 -20 -5 -23
-11z"/>
<path d="M2106 730 c-38 -12 -74 -46 -81 -80 -9 -40 18 -96 54 -114 52 -28
131 -16 131 20 0 11 -4 12 -19 4 -36 -19 -90 -12 -116 15 -33 33 -32 70 4 106
31 30 61 36 105 19 20 -7 26 -6 26 5 0 12 -16 20 -60 30 -8 2 -28 -1 -44 -5z"/>
<path d="M2603 733 c-60 -12 -98 -96 -69 -152 61 -117 245 -48 207 78 -16 55
-75 87 -138 74z m70 -34 c26 -12 47 -47 47 -80 0 -33 -44 -69 -85 -69 -41 0
-85 36 -85 69 0 68 62 108 123 80z"/>
<path d="M220 720 c-168 -6 -157 3 -159 -136 -2 -148 40 -238 165 -349 80 -72
118 -128 129 -187 l7 -38 60 0 60 0 -7 43 c-18 105 -43 147 -150 252 -56 55
-110 116 -120 135 -10 19 -20 65 -23 102 l-5 68 37 0 36 0 0 -55 0 -55 115 0
115 0 0 60 0 60 -55 0 -54 0 -3 53 -3 52 -145 -5z"/>
<path d="M1642 718 c-19 -19 -14 -56 9 -76 12 -9 33 -26 47 -38 32 -26 24 -54
-16 -54 -15 0 -33 5 -40 12 -9 9 -12 8 -12 -5 0 -10 11 -22 24 -28 58 -27 115
25 83 75 -9 13 -30 33 -47 43 -21 12 -30 24 -28 38 4 24 42 32 65 14 13 -11
15 -10 12 6 -3 15 -14 21 -44 23 -23 2 -46 -3 -53 -10z"/>
<path d="M1838 643 c-51 -121 -52 -123 -39 -123 6 0 19 16 28 35 15 32 20 35
60 35 40 0 45 -3 60 -35 9 -19 23 -35 30 -35 7 0 13 2 13 3 0 18 -92 203 -102
205 -9 2 -28 -31 -50 -85z m67 7 c20 -39 20 -40 -15 -40 -16 0 -30 4 -30 10 0
10 22 60 26 60 2 0 10 -13 19 -30z"/>
<path d="M2280 625 c0 -87 3 -105 15 -105 11 0 15 12 15 50 l0 51 58 -3 57 -3
3 -48 c2 -32 7 -47 15 -44 8 2 13 38 15 105 2 86 0 102 -13 102 -11 0 -15 -11
-15 -45 l0 -45 -60 0 -60 0 0 45 c0 33 -4 45 -15 45 -12 0 -15 -18 -15 -105z"/>
<path d="M2816 648 c20 -46 40 -94 46 -108 9 -23 13 -16 54 78 24 57 44 106
44 108 0 2 -6 4 -13 4 -8 0 -26 -31 -42 -70 -15 -38 -31 -67 -35 -65 -4 2 -19
34 -34 70 -16 36 -34 65 -42 65 -9 0 -3 -24 22 -82z"/>
<path d="M3011 713 c7 -10 24 -31 36 -46 18 -23 23 -41 23 -88 0 -46 3 -59 15
-59 12 0 15 13 15 58 0 50 4 62 36 102 44 55 25 70 -20 16 l-31 -36 -28 35
c-15 19 -35 35 -44 35 -13 0 -14 -3 -2 -17z"/>
<path d="M1647 432 c-29 -32 -21 -60 28 -94 33 -23 45 -38 43 -53 -3 -23 -44
-33 -61 -16 -15 15 -27 14 -27 -3 0 -17 22 -26 61 -26 35 0 64 38 54 70 -4 11
-24 32 -46 46 -41 25 -51 57 -23 68 8 3 24 1 34 -4 25 -13 30 -13 30 4 0 30
-68 36 -93 8z"/>
<path d="M1793 438 c28 -74 83 -198 87 -198 4 0 59 124 87 198 3 6 -1 12 -9
12 -9 0 -26 -29 -43 -70 -15 -38 -31 -70 -35 -70 -4 0 -21 31 -36 70 -16 38
-35 70 -43 70 -7 0 -11 -6 -8 -12z"/>
<path d="M2026 357 c-21 -50 -41 -98 -43 -104 -3 -7 2 -13 10 -13 8 0 20 14
26 30 9 28 13 30 60 30 46 0 50 -2 60 -30 5 -16 17 -30 25 -30 13 0 11 10 -10
58 -14 31 -35 78 -46 105 -12 26 -26 47 -32 47 -6 0 -28 -42 -50 -93z m72 1
c11 -27 10 -28 -18 -28 -33 0 -36 7 -18 45 12 28 18 25 36 -17z"/>
<path d="M2220 435 c0 -12 14 -15 66 -15 l65 0 -43 -57 c-25 -32 -54 -73 -67
-90 l-22 -33 90 0 c104 0 125 18 26 22 l-65 3 65 89 c36 50 65 91 65 93 0 2
-40 3 -90 3 -73 0 -90 -3 -90 -15z"/>
<path d="M1677 138 c6 -11 31 -10 37 1 3 5 -5 8 -18 7 -13 0 -22 -4 -19 -8z"/>
<path d="M1648 109 c-27 -15 -24 -74 4 -93 25 -18 64 -21 73 -7 3 5 -8 9 -24
9 -17 -1 -37 5 -46 12 -36 29 -3 85 47 78 15 -3 28 -1 28 4 0 11 -61 9 -82 -3z"/>
<path d="M1770 60 l0 -60 30 0 c17 0 30 5 30 10 0 6 -11 10 -25 10 -37 0 -35
37 3 43 l27 4 -27 2 c-21 1 -28 6 -28 20 0 14 8 21 28 24 25 4 25 4 -5 6 l-33
1 0 -60z"/>
<path d="M1867 113 c-14 -13 -6 -35 21 -58 21 -18 24 -26 15 -36 -10 -10 -16
-9 -29 2 -15 12 -17 12 -12 -1 2 -8 16 -15 29 -15 36 0 39 46 4 69 -28 18 -24
41 6 33 11 -3 19 -1 19 4 0 10 -43 12 -53 2z"/>
<path d="M1962 60 c1 -46 2 -55 7 -32 l6 34 29 -31 c17 -17 34 -31 40 -31 5 0
-4 15 -22 33 l-32 33 27 27 c15 15 23 27 17 27 -6 0 -21 -12 -35 -26 l-24 -26
-6 29 c-4 18 -7 4 -7 -37z"/>
<path d="M2080 60 l0 -60 35 0 c19 0 35 5 35 10 0 6 -11 10 -25 10 -37 0 -35
37 3 43 l27 4 -27 2 c-21 1 -28 6 -28 20 0 14 8 21 28 24 22 3 20 4 -10 6
l-38 1 0 -60z"/>
<path d="M2241 58 c1 -35 3 -54 6 -43 11 50 14 51 44 16 32 -38 51 -38 20 0
-13 17 -16 29 -10 41 14 26 0 48 -32 48 l-29 0 1 -62z m47 29 c2 -12 -3 -17
-17 -17 -15 0 -21 6 -21 21 0 25 33 22 38 -4z"/>
<path d="M2360 60 l0 -60 30 0 c17 0 30 5 30 10 0 6 -11 10 -25 10 -37 0 -35
37 3 43 l27 4 -27 2 c-21 1 -28 6 -28 20 0 14 8 21 28 24 25 4 25 4 -5 6 l-33
1 0 -60z"/>
<path d="M2450 60 c0 -33 4 -60 10 -60 6 0 10 13 10 30 0 25 4 30 24 30 30 0
40 13 31 40 -5 15 -15 20 -41 20 l-34 0 0 -60z m58 27 c2 -12 -3 -17 -17 -17
-15 0 -21 6 -21 21 0 25 33 22 38 -4z"/>
<path d="M2550 76 c0 -50 19 -76 54 -76 13 0 29 7 36 15 17 21 26 105 11 105
-6 0 -11 -18 -11 -45 0 -32 -5 -47 -18 -54 -31 -17 -52 5 -52 54 0 25 -4 45
-10 45 -5 0 -10 -20 -10 -44z"/>
<path d="M2690 61 c0 -60 0 -61 29 -61 34 0 56 23 46 47 -4 10 -8 29 -9 43 -1
21 -7 26 -33 28 l-33 3 0 -60z m53 43 c9 -10 -4 -34 -19 -34 -8 0 -14 9 -14
20 0 19 19 27 33 14z m6 -57 c13 -16 5 -27 -21 -27 -11 0 -18 7 -18 20 0 23
22 27 39 7z"/>
<path d="M2800 60 l0 -60 35 0 c19 0 35 5 35 10 0 6 -11 10 -25 10 -23 0 -25
3 -25 50 0 28 -4 50 -10 50 -6 0 -10 -27 -10 -60z"/>
<path d="M2903 60 c0 -36 2 -50 4 -32 2 17 2 47 0 65 -2 17 -4 3 -4 -33z"/>
<path d="M2950 60 c0 -33 4 -60 10 -60 6 0 10 14 10 32 l0 32 33 -32 c45 -43
59 -41 17 3 l-34 35 24 25 c13 14 19 25 12 25 -6 0 -20 -12 -31 -26 l-21 -27
0 27 c0 14 -4 26 -10 26 -6 0 -10 -27 -10 -60z"/>
<path d="M3089 92 c10 -15 21 -43 24 -62 l4 -35 1 34 c1 20 11 45 24 58 12 13
19 26 15 29 -4 4 -15 -4 -25 -16 l-19 -24 -12 22 c-6 12 -16 22 -22 22 -6 0
-1 -13 10 -28z"/>
</g>
</svg>
