<svg width="27" height="40" viewBox="0 0 27 40" fill="none" xmlns="http://www.w3.org/2000/svg">
<path d="M14.9425 30.6104L14.42 30.8786C14.2194 30.9815 13.981 30.8359 13.981 30.6104V30.6104" stroke="black"/>
<path d="M14.4231 39H2C1.44772 39 1 38.5523 1 38V32.1039C1 31.5517 1.44772 31.1039 2 31.1039H14.4231C14.9754 31.1039 15.4231 31.5517 15.4231 32.1039V38C15.4231 38.5523 14.9754 39 14.4231 39Z" stroke="black"/>
<path d="M1.96143 30.6104V30.6104C1.96143 30.0653 2.40333 29.6234 2.94844 29.6234H13.4744C14.0195 29.6234 14.4614 30.0653 14.4614 30.6104V30.6104" stroke="black"/>
<path d="M1.48096 30.6104L2.00344 30.8786C2.20403 30.9815 2.4425 30.8359 2.4425 30.6104V30.6104" stroke="black"/>
<path d="M3.8845 29.1299V29.1299C3.8845 28.8043 3.81777 28.4823 3.68842 28.1835L2.84603 26.2379C2.26549 24.8971 2.02894 23.4325 2.15783 21.9771L2.33079 20.0241C2.40444 19.1926 2.62961 18.3815 2.99518 17.631V17.631C3.57927 16.4319 4.44663 15.3931 5.52228 14.6044L6.12809 14.1602C6.86486 13.62 7.45896 12.9085 7.85903 12.0871L8.69219 10.3766L9.57318 13.0896C9.62665 13.2543 9.70149 13.4112 9.79579 13.5564L9.89178 13.7042C10.343 14.399 11.1152 14.8182 11.9436 14.8182V14.8182C12.331 14.8182 12.7094 14.9353 13.0292 15.1541L15.341 16.7362C15.3955 16.7735 15.4462 16.8161 15.4922 16.8633L15.9641 17.3477C16.2336 17.6244 16.3845 17.9954 16.3845 18.3818V18.6129C16.3845 19.0351 16.2621 19.4482 16.0322 19.8023L15.7283 20.2702C15.5609 20.5279 15.214 20.5973 14.9603 20.4237V20.4237C14.3113 19.9795 13.5962 19.6405 12.8415 19.4192L12.298 19.2598V19.2598C11.1966 18.9368 10.0285 18.9168 8.91674 19.2021L8.69219 19.2598L9.73731 21.4054C9.99674 21.938 10.4024 22.3858 10.9068 22.6965L11.4188 23.0118C12.1324 23.4513 12.6295 24.1693 12.7898 24.9919V24.9919C12.9423 25.7747 13.0191 26.5704 13.0191 27.368V29.1299" stroke="black"/>
<ellipse cx="8.45211" cy="15.5585" rx="0.721154" ry="0.74026" fill="black"/>
<path d="M12.0575 9.38959L12.58 9.12142C12.7806 9.01847 13.019 9.16413 13.019 9.38959V9.38959" stroke="black"/>
<path d="M12.5769 0.999953L25 0.999953C25.5523 0.999953 26 1.44767 26 1.99995V7.89606C26 8.44834 25.5523 8.89606 25 8.89606L12.5769 8.89606C12.0246 8.89606 11.5769 8.44834 11.5769 7.89606V1.99995C11.5769 1.44767 12.0246 0.999953 12.5769 0.999953Z" stroke="black"/>
<path d="M25.0386 9.38957V9.38957C25.0386 9.93469 24.5967 10.3766 24.0516 10.3766L13.5256 10.3766C12.9805 10.3766 12.5386 9.93469 12.5386 9.38957V9.38957" stroke="black"/>
<path d="M25.519 9.38959L24.9966 9.12142C24.796 9.01847 24.5575 9.16413 24.5575 9.38959V9.38959" stroke="black"/>
<path d="M23.1155 10.8701V10.8701C23.1155 11.1957 23.1822 11.5177 23.3116 11.8165L24.154 13.7621C24.7345 15.1029 24.9711 16.5675 24.8422 18.0229L24.6692 19.9759C24.5956 20.8074 24.3704 21.6185 24.0048 22.369V22.369C23.4207 23.5681 22.5534 24.6069 21.4777 25.3956L20.8719 25.8398C20.1351 26.38 19.541 27.0915 19.141 27.9129L18.3078 29.6234L17.4268 26.9104C17.3733 26.7457 17.2985 26.5888 17.2042 26.4436L17.1082 26.2958C16.657 25.601 15.8848 25.1818 15.0564 25.1818V25.1818C14.669 25.1818 14.2906 25.0647 13.9708 24.8459L11.659 23.2638C11.6045 23.2266 11.5538 23.1839 11.5078 23.1367L11.0359 22.6523C10.7664 22.3756 10.6155 22.0046 10.6155 21.6182V21.3871C10.6155 20.9649 10.7379 20.5518 10.9678 20.1977L11.2717 19.7298C11.4391 19.4721 11.786 19.4027 12.0397 19.5763V19.5763C12.6887 20.0205 13.4038 20.3595 14.1585 20.5808L14.702 20.7402V20.7402C15.8034 21.0633 16.9715 21.0832 18.0833 20.7979L18.3078 20.7402L17.2627 18.5946C17.0033 18.062 16.5976 17.6142 16.0932 17.3035L15.5812 16.9882C14.8676 16.5487 14.3705 15.8307 14.2102 15.0081V15.0081C14.0577 14.2253 13.9809 13.4296 13.9809 12.632V10.8701" stroke="black"/>
<ellipse cx="18.5479" cy="24.4416" rx="0.721154" ry="0.74026" transform="rotate(-180 18.5479 24.4416)" fill="black"/>
<path d="M12.5385 1V1C6.42481 1 1.43911 5.8996 1.33262 12.0123L1 31.1039" stroke="black" stroke-width="0.2"/>
<path d="M14.4615 39V39C20.5752 39 25.5609 34.1004 25.6674 27.9877L26 8.8961" stroke="black" stroke-width="0.2"/>
</svg>
