<svg width="156" height="234" viewBox="0 0 156 234" fill="none" xmlns="http://www.w3.org/2000/svg">
<path d="M86.654 180.662L82.3414 182.876C81.6759 183.217 80.8848 182.734 80.8848 181.986V180.662" stroke="black" stroke-width="5"/>
<path d="M88.5385 231H4C3.44772 231 3 230.552 3 230V184.623C3 184.071 3.44772 183.623 4 183.623H88.5385C89.0907 183.623 89.5385 184.071 89.5385 184.623V230C89.5385 230.552 89.0907 231 88.5385 231Z" stroke="black" stroke-width="5"/>
<path d="M8.76904 180.662V175.74C8.76904 175.188 9.21676 174.74 9.76904 174.74H82.769C83.3213 174.74 83.769 175.188 83.769 175.74V180.662" stroke="black" stroke-width="5"/>
<path d="M5.88477 180.662L10.1974 182.876C10.8628 183.217 11.654 182.734 11.654 181.986V180.662" stroke="black" stroke-width="5"/>
<path d="M20.3075 171.779V171.779C20.3075 169.826 19.9071 167.893 19.131 166.101L10.382 145.894C9.32345 143.449 8.89214 140.779 9.12715 138.125L11.4909 111.435C11.5985 110.22 11.9275 109.035 12.4617 107.938L19.008 94.499C19.8615 92.7468 21.1289 91.2289 22.7007 90.0764L39.3032 77.9033C40.0891 77.3271 40.7228 76.5681 41.1496 75.692L49.1537 59.2597L54.5159 75.7728C54.7861 76.6046 55.1642 77.3974 55.6405 78.1309L56.5521 79.5344C59.1341 83.5101 63.5526 85.9091 68.2932 85.9091H68.8271C71.0442 85.9091 73.2096 86.579 75.0394 87.8312L89.4562 97.697C89.5108 97.7344 89.5615 97.7771 89.6077 97.8245L94.4564 102.802C95.0021 103.362 95.3075 104.113 95.3075 104.895V110.781C95.3075 111.941 94.9712 113.076 94.3394 114.049L91.2122 118.864C90.2943 120.277 88.3927 120.658 87.002 119.706L86.2554 119.195C82.697 116.76 78.7768 114.901 74.6393 113.688L70.7883 112.558L63.0659 110.294C61.5122 109.838 59.8643 109.81 58.296 110.212L49.1537 112.558L57.1714 129.019C57.5869 129.872 58.2365 130.589 59.0444 131.086L69.6176 137.598C71.2831 138.624 72.4434 140.3 72.8175 142.22L74.5799 151.266C74.936 153.093 75.1152 154.95 75.1152 156.812V171.779" stroke="black" stroke-width="5"/>
<ellipse cx="47.7117" cy="90.3506" rx="4.32692" ry="4.44156" fill="black"/>
<path d="M69.346 53.3376L73.6586 51.1242C74.3241 50.7827 75.1152 51.2659 75.1152 52.0139V53.3376" stroke="black" stroke-width="5"/>
<path d="M67.4615 2.99996L152 2.99996C152.552 2.99996 153 3.44768 153 3.99996V49.3766C153 49.9289 152.552 50.3766 152 50.3766L67.4615 50.3766C66.9093 50.3766 66.4615 49.9289 66.4615 49.3766V3.99996C66.4615 3.44767 66.9093 2.99996 67.4615 2.99996Z" stroke="black" stroke-width="5"/>
<path d="M147.231 53.3376V58.2597C147.231 58.812 146.783 59.2597 146.231 59.2597L73.231 59.2597C72.6787 59.2597 72.231 58.812 72.231 58.2597V53.3376" stroke="black" stroke-width="5"/>
<path d="M150.115 53.3376L145.803 51.1242C145.137 50.7827 144.346 51.2659 144.346 52.0139V53.3376" stroke="black" stroke-width="5"/>
<path d="M135.692 62.2208V62.2208C135.692 64.1741 136.093 66.1066 136.869 67.8991L145.618 88.106C146.677 90.5507 147.108 93.2211 146.873 95.8747L144.509 122.565C144.402 123.78 144.072 124.965 143.538 126.061L136.992 139.501C136.139 141.253 134.871 142.771 133.299 143.923L116.697 156.097C115.911 156.673 115.277 157.432 114.85 158.308L106.846 174.74L101.484 158.227C101.214 157.395 100.836 156.603 100.359 155.869L99.4479 154.466C96.8659 150.49 92.4474 148.091 87.7068 148.091H87.1729C84.9558 148.091 82.7904 147.421 80.9606 146.169L66.5438 136.303C66.4892 136.266 66.4385 136.223 66.3923 136.175L61.5436 131.198C60.9979 130.638 60.6925 129.887 60.6925 129.105V123.219C60.6925 122.059 61.0288 120.924 61.6606 119.951L64.7878 115.136C65.7057 113.723 67.6073 113.342 68.998 114.294L69.7446 114.805C73.303 117.24 77.2232 119.099 81.3607 120.312L85.2117 121.442L92.9341 123.706C94.4878 124.162 96.1357 124.19 97.704 123.788L106.846 121.442L98.8286 104.981C98.4131 104.128 97.7635 103.411 96.9556 102.914L86.3824 96.4015C84.7169 95.3758 83.5566 93.6999 83.1825 91.78L81.4201 82.7342C81.064 80.907 80.8848 79.0497 80.8848 77.1882V62.2208" stroke="black" stroke-width="5"/>
<ellipse cx="108.288" cy="143.649" rx="4.32692" ry="4.44156" transform="rotate(-180 108.288 143.649)" fill="black"/>
<path d="M72.2308 3H24.8187C14.4543 3 6.00214 11.3062 5.8216 21.669L3 183.623" stroke="black" stroke-width="2"/>
<path d="M83.7692 231H131.181C141.546 231 149.998 222.694 150.178 212.331L153 50.3766" stroke="black" stroke-width="2"/>
</svg>
