<?xml version="1.0" standalone="no"?>
<!DOCTYPE svg PUBLIC "-//W3C//DTD SVG 20010904//EN"
 "http://www.w3.org/TR/2001/REC-SVG-20010904/DTD/svg10.dtd">
<svg version="1.0" xmlns="http://www.w3.org/2000/svg"
 width="847.000000pt" height="847.000000pt" viewBox="0 0 847.000000 847.000000"
 preserveAspectRatio="xMidYMid meet">

<g transform="translate(0.000000,847.000000) scale(0.100000,-0.100000)"
fill="#000000" stroke="none">
<path d="M0 4235 l0 -4235 4235 0 4235 0 0 4235 0 4235 -4235 0 -4235 0 0
-4235z m8434 4179 c15 -14 16 -394 16 -4028 0 -3107 -3 -4015 -12 -4024 -9 -9
-917 -12 -4024 -12 -3634 0 -4014 1 -4028 16 -15 14 -16 394 -16 4028 0 3107
3 4015 12 4024 9 9 917 12 4024 12 3634 0 4014 -1 4028 -16z m-8226 -463 c8
-4 13 -19 11 -32 -1 -13 2 -32 6 -43 12 -27 -7 -51 -40 -51 -35 0 -55 27 -39
53 8 12 8 22 1 34 -20 32 26 61 61 39z m19 -1013 c-4 -7 -16 -39 -29 -70 -13
-32 -26 -58 -30 -58 -12 0 -10 16 11 70 l19 50 -29 0 c-16 0 -29 5 -29 10 0 6
21 10 46 10 33 0 45 -4 41 -12z m-7 -1008 c0 -5 -8 -10 -18 -10 -18 0 -42 -18
-42 -31 0 -4 9 -5 20 -2 26 7 50 -13 50 -41 0 -43 -44 -61 -74 -30 -23 22 -20
80 4 104 21 21 60 27 60 10z m0 -1010 c0 -5 -11 -10 -25 -10 -15 0 -25 -6 -25
-14 0 -8 11 -17 25 -20 19 -5 25 -13 25 -34 0 -34 -16 -52 -46 -52 -34 0 -39
18 -7 22 36 4 40 41 6 46 -19 3 -23 10 -23 38 0 32 2 34 35 34 19 0 35 -4 35
-10z m0 -1044 c0 -26 5 -47 13 -50 10 -5 10 -7 0 -12 -7 -3 -13 -12 -13 -20 0
-8 -4 -14 -10 -14 -5 0 -10 7 -10 15 0 10 -10 15 -28 15 -16 0 -31 3 -35 6 -7
7 61 104 74 104 5 0 9 -20 9 -44z m-9 -982 c9 -11 10 -20 2 -32 -7 -12 -7 -22
1 -35 22 -34 -38 -77 -67 -48 -8 8 -2 11 21 11 25 0 32 4 32 20 0 13 -7 20
-20 20 -26 0 -26 16 1 23 26 7 20 31 -9 35 -12 2 -22 8 -22 13 0 15 47 10 61
-7z m-7 -1000 c27 -10 19 -53 -16 -85 l-32 -29 37 0 c20 0 37 -4 37 -10 0 -5
-20 -10 -45 -10 -55 0 -59 17 -15 57 17 14 30 35 30 46 0 16 -5 18 -30 15 -30
-5 -41 6 -17 15 18 8 33 8 51 1z m-14 -1074 c0 -40 -4 -70 -10 -70 -5 0 -10
25 -10 56 0 46 -3 55 -15 50 -21 -8 -19 11 3 23 29 18 32 13 32 -59z m1660
-611 c0 -25 3 -29 19 -24 32 10 51 -5 51 -40 0 -40 -16 -54 -58 -53 l-32 1 0
74 c0 42 4 73 10 73 6 0 10 -14 10 -31z m2090 -42 l0 -73 -40 -1 c-41 -2 -60
15 -60 51 0 25 31 48 56 42 21 -6 24 -3 24 24 0 16 5 30 10 30 6 0 10 -31 10
-73z m1980 63 c0 -5 -4 -10 -10 -10 -14 0 -12 -27 3 -34 10 -5 10 -7 0 -12 -7
-3 -13 -23 -13 -45 0 -21 -4 -39 -10 -39 -5 0 -10 18 -10 39 0 22 -6 42 -12
45 -10 5 -10 7 0 12 6 3 12 14 12 23 0 10 3 21 7 24 10 11 33 8 33 -3z m1990
-21 c0 -26 3 -29 20 -24 12 4 27 1 35 -5 17 -14 21 -90 5 -90 -5 0 -10 12 -10
28 0 36 -14 56 -34 49 -10 -4 -16 -19 -16 -42 0 -19 -4 -35 -10 -35 -6 0 -10
32 -10 75 0 43 4 75 10 75 6 0 10 -14 10 -31z m-7022 -71 l3 -46 -38 1 c-50 3
-59 33 -14 50 37 14 41 31 6 25 -14 -3 -25 -2 -25 2 0 14 15 21 40 18 22 -3
25 -8 28 -50z m2022 42 c0 -5 -8 -10 -19 -10 -10 0 -24 -6 -30 -14 -17 -21 -2
-46 27 -46 19 0 23 -3 15 -11 -17 -17 -61 -2 -68 22 -9 29 20 69 50 69 14 0
25 -4 25 -10z m2018 -2 c7 -7 12 -20 12 -30 0 -13 -8 -18 -30 -18 -16 0 -30
-5 -30 -11 0 -7 12 -10 30 -7 31 5 41 -8 15 -18 -28 -11 -64 5 -71 32 -11 44
43 83 74 52z m2042 -49 c0 -40 -5 -63 -16 -74 -18 -18 -65 -17 -71 1 -2 7 6
10 23 6 16 -3 29 1 35 9 15 24 10 29 -20 23 -23 -5 -32 -2 -40 14 -25 46 -1
81 54 79 l35 -1 0 -57z"/>
<path d="M4850 8315 c0 -32 -2 -35 -30 -35 l-30 0 0 -60 0 -60 31 0 c24 0 30
-3 25 -16 -3 -9 -6 -17 -6 -19 0 -2 -14 1 -30 7 -53 18 -162 6 -203 -22 -50
-34 -78 -89 -80 -153 -1 -66 18 -103 99 -191 35 -38 64 -72 64 -77 0 -4 -9
-11 -21 -14 -26 -9 -49 -62 -49 -115 l0 -40 295 0 295 0 0 56 c0 48 -4 59 -30
86 -16 16 -30 32 -30 35 0 3 28 35 61 71 100 107 120 180 74 275 -29 62 -76
91 -154 95 -37 2 -84 -1 -104 -6 -33 -9 -37 -8 -37 9 0 14 7 19 30 19 l30 0 0
60 0 60 -35 0 c-33 0 -35 2 -35 35 l0 35 -65 0 -65 0 0 -35z m73 8 c-27 -4
-32 -9 -36 -36 -4 -31 -4 -31 -5 6 -2 37 -2 37 36 35 36 -1 36 -1 5 -5z m-118
-355 c23 -10 25 -16 25 -75 0 -55 -2 -63 -19 -63 -22 0 -101 89 -101 113 0 32
50 46 95 25z m303 0 c21 -21 13 -47 -29 -93 -58 -63 -69 -60 -69 20 0 59 2 67
23 75 32 13 61 12 75 -2z"/>
<path d="M5874 8336 c-36 -16 -58 -64 -45 -99 7 -18 -1 -32 -44 -79 -29 -31
-66 -83 -82 -115 -24 -49 -28 -70 -28 -138 0 -70 4 -89 30 -142 l31 -61 -37
-11 c-55 -17 -73 -42 -77 -117 l-4 -64 301 0 301 0 0 48 c0 68 -26 113 -75
131 -22 8 -42 16 -44 17 -2 2 6 15 16 31 50 72 59 206 20 295 -25 55 -113 162
-127 153 -20 -12 -50 -101 -62 -179 -11 -80 -14 -86 -35 -86 -19 0 -22 4 -19
23 3 12 8 45 11 72 10 78 33 148 65 199 36 56 37 67 8 100 -29 32 -64 39 -104
22z"/>
<path d="M2823 8314 c-21 -21 -25 -32 -20 -65 5 -38 2 -44 -44 -92 -28 -29
-63 -80 -80 -113 -25 -53 -29 -74 -29 -140 0 -79 20 -146 55 -184 12 -14 8
-18 -36 -34 -57 -20 -79 -55 -79 -126 l0 -40 295 0 295 0 0 54 c0 65 -22 97
-78 114 l-40 12 31 58 c28 51 32 66 32 142 0 73 -4 93 -28 140 -15 30 -45 75
-67 100 -35 39 -41 43 -54 30 -23 -24 -48 -109 -53 -182 -6 -68 -6 -68 -35
-68 l-30 0 7 58 c12 100 37 183 71 234 28 41 32 53 23 75 -22 58 -91 72 -136
27z"/>
<path d="M1750 8310 c-11 -11 -20 -30 -20 -43 0 -13 -15 -38 -35 -57 -20 -20
-41 -54 -51 -84 -9 -28 -39 -82 -66 -119 -41 -57 -49 -75 -46 -105 3 -31 9
-40 43 -59 58 -33 106 -31 133 7 13 17 32 30 43 30 24 0 99 39 99 52 0 4 7 8
15 8 13 0 14 -4 4 -22 -7 -13 -22 -31 -33 -41 -68 -59 -109 -104 -127 -140
-12 -22 -34 -51 -50 -64 -32 -27 -53 -83 -47 -128 l3 -30 303 -3 302 -2 0 32
c0 55 -19 106 -50 131 -16 14 -27 27 -24 29 14 15 34 130 34 196 0 178 -107
318 -265 348 -24 4 -54 21 -80 45 -48 45 -57 47 -85 19z"/>
<path d="M3770 8322 c-57 -9 -92 -79 -66 -131 9 -16 22 -34 29 -38 10 -6 12
-28 8 -91 l-6 -84 -25 26 c-18 20 -24 36 -21 64 4 56 -33 92 -93 92 -36 0 -48
-5 -65 -26 -30 -39 -28 -94 5 -128 15 -14 30 -26 34 -26 4 0 15 -21 25 -47 10
-27 36 -90 58 -142 32 -75 37 -96 26 -100 -7 -2 -26 -17 -41 -32 -24 -24 -28
-35 -28 -88 l0 -61 301 0 302 0 -6 60 c-6 69 -26 107 -61 116 l-24 6 45 111
c58 144 65 157 107 199 38 38 45 68 25 111 -15 34 -48 49 -94 45 -32 -2 -44
-10 -63 -38 -15 -23 -21 -42 -17 -60 4 -17 -2 -34 -19 -55 l-24 -29 -7 80 c-7
78 -6 82 19 109 49 53 22 144 -47 157 -35 7 -85 -10 -102 -34 -17 -26 -20 -80
-4 -109 8 -15 6 -33 -7 -72 -9 -29 -20 -55 -23 -60 -4 -4 -16 21 -28 55 -18
55 -19 66 -7 83 46 65 -20 150 -106 137z"/>
<path d="M6802 8308 c-5 -7 -13 -27 -16 -44 -4 -17 -21 -44 -39 -61 -18 -16
-40 -52 -50 -80 -10 -27 -40 -82 -67 -122 -28 -41 -50 -80 -50 -88 0 -29 23
-55 63 -74 59 -26 76 -24 113 16 18 20 41 35 54 35 26 0 57 15 87 43 13 11 26
18 29 14 14 -14 -11 -50 -71 -103 -42 -37 -74 -75 -91 -110 -14 -30 -33 -54
-40 -54 -25 0 -54 -61 -54 -112 l0 -48 295 0 295 0 0 45 c0 44 -22 105 -38
105 -4 0 -13 4 -20 9 -10 6 -9 24 9 92 50 193 -14 364 -163 438 -34 17 -79 34
-99 37 -24 4 -49 18 -70 40 -34 36 -60 43 -77 22z"/>
<path d="M7895 8263 c-27 -7 -35 -21 -35 -65 0 -56 -26 -50 -35 8 l-7 47 -50
-6 c-67 -8 -78 -19 -78 -81 0 -68 14 -114 45 -147 l26 -27 -11 -98 c-6 -55
-14 -123 -17 -151 -3 -29 -9 -53 -14 -53 -4 0 -21 -12 -38 -26 -29 -24 -31
-31 -31 -90 l0 -64 295 0 295 0 0 64 c0 59 -2 66 -31 90 -17 14 -34 26 -38 26
-5 0 -11 24 -14 53 -3 28 -11 96 -17 151 l-11 98 26 27 c31 33 45 79 45 147 0
62 -11 73 -78 81 l-50 6 -7 -47 c-9 -60 -31 -61 -38 -1 -2 26 -7 48 -9 51 -8
8 -101 13 -123 7z m35 -26 c0 -2 -9 -12 -20 -22 -17 -16 -20 -16 -20 -2 0 8 8
18 18 20 9 3 18 5 20 6 1 0 2 -1 2 -2z m190 -21 c0 -3 -4 -8 -10 -11 -5 -3
-10 -1 -10 4 0 6 5 11 10 11 6 0 10 -2 10 -4z m-374 -22 c-3 -9 -6 -21 -6 -27
0 -8 -3 -8 -11 0 -13 13 -5 43 12 43 6 0 8 -7 5 -16z"/>
<path d="M796 8210 c-4 -33 -11 -50 -21 -50 -13 0 -17 7 -30 64 -5 26 -8 28
-41 21 -20 -3 -46 -11 -60 -17 -22 -10 -23 -15 -18 -72 8 -92 13 -107 43 -135
l28 -26 -18 -150 c-14 -118 -21 -152 -34 -160 -52 -30 -58 -42 -63 -104 l-4
-61 297 0 297 0 -4 61 c-5 62 -11 74 -63 104 -13 8 -20 42 -34 160 l-18 150
28 26 c30 28 35 43 43 135 5 57 4 62 -18 72 -14 6 -40 14 -60 17 -33 7 -36 5
-41 -21 -13 -57 -17 -64 -30 -64 -10 0 -17 17 -21 50 l-7 50 -72 0 -72 0 -7
-50z m64 27 c0 -2 -9 -12 -20 -22 -17 -16 -20 -16 -20 -2 0 8 8 18 18 20 9 3
18 5 20 6 1 0 2 -1 2 -2z m190 -21 c0 -3 -4 -8 -10 -11 -5 -3 -10 -1 -10 4 0
6 5 11 10 11 6 0 10 -2 10 -4z m-374 -22 c-3 -9 -6 -21 -6 -27 0 -8 -3 -8 -11
0 -13 13 -5 43 12 43 6 0 8 -7 5 -16z"/>
<path d="M840 7193 c-58 -11 -110 -77 -110 -140 0 -16 9 -45 19 -66 l19 -37
-29 -17 c-47 -28 -34 -103 17 -103 23 0 25 -3 19 -27 -10 -40 -41 -79 -89
-113 -48 -33 -73 -76 -82 -144 l-7 -46 278 0 278 0 -7 46 c-9 68 -34 111 -82
145 -47 32 -94 93 -94 121 0 12 8 18 25 18 50 0 62 76 16 103 l-29 17 19 37
c23 46 24 84 3 129 -28 58 -95 89 -164 77z"/>
<path d="M4880 7193 c-58 -11 -110 -77 -110 -140 0 -16 9 -45 19 -66 l19 -37
-29 -17 c-47 -28 -34 -103 17 -103 23 0 25 -3 19 -27 -10 -40 -41 -79 -89
-113 -48 -33 -73 -76 -82 -144 l-7 -46 278 0 278 0 -7 46 c-9 68 -34 111 -82
145 -47 32 -94 93 -94 121 0 12 8 18 25 18 50 0 62 76 16 103 l-29 17 19 37
c23 46 24 84 3 129 -28 58 -95 89 -164 77z"/>
<path d="M6900 7193 c-58 -11 -110 -77 -110 -140 0 -16 9 -45 19 -66 l19 -37
-29 -17 c-47 -28 -34 -103 17 -103 23 0 25 -3 19 -27 -10 -40 -41 -79 -89
-113 -48 -33 -73 -76 -82 -144 l-7 -46 278 0 278 0 -7 46 c-9 68 -34 111 -82
145 -47 32 -94 93 -94 121 0 12 8 18 25 18 50 0 62 76 16 103 l-29 17 19 37
c23 46 24 84 3 129 -28 58 -95 89 -164 77z"/>
<path d="M1809 7167 c-61 -41 -82 -126 -44 -183 18 -27 17 -27 -16 -55 -30
-24 -33 -30 -24 -56 8 -22 18 -29 43 -31 36 -4 38 -7 17 -53 -18 -41 -39 -65
-88 -102 -45 -34 -77 -93 -77 -142 l0 -35 265 0 265 0 0 33 c-1 49 -33 111
-76 143 -51 38 -72 62 -90 101 -20 46 -18 51 18 55 25 2 34 9 41 32 9 26 6 32
-23 56 -32 26 -32 27 -16 53 22 33 23 95 2 136 -36 69 -131 92 -197 48z"/>
<path d="M3829 7167 c-61 -41 -82 -126 -44 -183 18 -27 17 -27 -16 -55 -30
-24 -33 -30 -24 -56 8 -22 18 -29 43 -31 36 -4 38 -7 17 -53 -18 -41 -39 -65
-88 -102 -45 -34 -77 -93 -77 -142 l0 -35 265 0 265 0 0 33 c-1 49 -33 111
-76 143 -51 38 -72 62 -90 101 -20 46 -18 51 18 55 25 2 34 9 41 32 9 26 6 32
-23 56 -32 26 -32 27 -16 53 22 33 23 95 2 136 -36 69 -131 92 -197 48z"/>
<path d="M5849 7167 c-61 -41 -82 -126 -44 -183 18 -27 17 -27 -16 -55 -30
-24 -33 -30 -24 -56 8 -22 18 -29 43 -31 36 -4 38 -7 17 -53 -18 -41 -39 -65
-88 -102 -45 -34 -77 -93 -77 -142 l0 -35 265 0 265 0 0 33 c-1 49 -33 111
-76 143 -51 38 -72 62 -90 101 -20 46 -18 51 18 55 25 2 34 9 41 32 9 26 6 32
-23 56 -32 26 -32 27 -16 53 22 33 23 95 2 136 -36 69 -131 92 -197 48z"/>
<path d="M7869 7167 c-61 -41 -82 -126 -44 -183 18 -27 17 -27 -16 -55 -30
-24 -33 -30 -24 -56 8 -22 18 -29 43 -31 36 -4 38 -7 17 -53 -18 -41 -39 -65
-88 -102 -45 -34 -77 -93 -77 -142 l0 -35 265 0 265 0 0 33 c-1 49 -33 111
-76 143 -51 38 -72 62 -90 101 -20 46 -18 51 18 55 25 2 34 9 41 32 9 26 6 32
-23 56 -32 26 -32 27 -16 53 22 33 23 95 2 136 -36 69 -131 92 -197 48z"/>
<path d="M2834 5161 c-32 -14 -72 -68 -80 -105 -4 -24 0 -48 14 -79 l20 -46
-31 -24 c-29 -22 -31 -27 -22 -53 8 -23 17 -30 43 -32 17 -2 32 -8 32 -13 0
-28 -46 -92 -96 -135 -63 -54 -84 -93 -84 -154 l0 -40 265 0 265 0 0 39 c0 60
-23 102 -89 160 -52 45 -91 101 -91 132 0 4 15 9 32 11 25 2 35 9 43 31 9 26
6 32 -25 57 -29 23 -32 30 -22 43 41 49 33 133 -18 182 -23 22 -40 29 -82 32
-29 1 -62 -1 -74 -6z"/>
<path d="M4853 4145 c-66 -28 -94 -130 -55 -197 15 -26 15 -30 2 -38 -50 -29
-54 -36 -41 -69 11 -25 19 -31 42 -31 34 0 36 -10 8 -67 -12 -26 -40 -57 -71
-79 -55 -41 -87 -97 -88 -151 l0 -33 265 0 265 0 0 33 c-1 54 -33 110 -88 151
-31 22 -59 53 -71 79 -28 57 -26 67 8 67 23 0 31 6 42 31 13 33 9 40 -40 69
-12 6 -12 13 2 43 61 127 -53 248 -180 192z m144 -38 c18 -18 27 -39 30 -74 5
-43 2 -53 -23 -82 -29 -35 -30 -35 28 -66 39 -21 28 -55 -18 -55 -30 0 -34 -3
-34 -27 0 -47 40 -113 90 -149 56 -40 76 -68 85 -118 l7 -36 -246 0 c-233 0
-246 1 -246 19 0 42 25 82 81 131 62 54 99 112 99 155 0 22 -4 25 -35 25 -19
0 -35 2 -35 4 0 2 -2 11 -5 19 -4 9 9 24 36 41 23 16 38 31 32 35 -24 16 -43
59 -43 99 0 37 6 50 35 79 33 33 39 35 86 31 37 -4 58 -12 76 -31z"/>
<path d="M1849 2141 c-48 -15 -69 -32 -89 -71 -25 -49 -25 -85 -1 -133 l19
-37 -29 -17 c-49 -29 -34 -98 23 -105 l27 -3 -23 -45 c-13 -26 -43 -60 -72
-82 -56 -43 -81 -84 -90 -151 l-7 -47 274 2 274 3 -2 39 c-4 58 -38 116 -92
157 -27 21 -57 56 -69 80 l-22 44 29 3 c19 2 32 11 40 28 18 39 13 58 -18 77
l-29 17 19 37 c23 45 24 71 3 123 -24 61 -103 99 -165 81z m118 -54 c18 -18
27 -39 30 -74 5 -43 2 -53 -23 -82 -29 -35 -30 -35 28 -66 39 -21 28 -55 -18
-55 -30 0 -34 -3 -34 -27 0 -47 40 -113 90 -149 56 -40 76 -68 85 -118 l7 -36
-246 0 c-233 0 -246 1 -246 19 0 42 25 82 81 131 62 54 99 112 99 155 0 22 -4
25 -35 25 -19 0 -35 2 -35 4 0 2 -2 11 -5 19 -4 9 9 24 36 41 23 16 38 31 32
35 -24 16 -43 59 -43 99 0 37 6 50 35 79 33 33 39 35 86 31 37 -4 58 -12 76
-31z"/>
<path d="M3869 2141 c-48 -15 -69 -32 -89 -71 -25 -49 -25 -85 -1 -133 l19
-37 -29 -17 c-49 -29 -34 -98 23 -105 l27 -3 -23 -45 c-13 -26 -43 -60 -72
-82 -56 -43 -81 -84 -90 -151 l-7 -47 274 2 274 3 -2 39 c-4 58 -38 116 -92
157 -27 21 -57 56 -69 80 l-22 44 29 3 c19 2 32 11 40 28 18 39 13 58 -18 77
l-29 17 19 37 c23 45 24 71 3 123 -24 61 -103 99 -165 81z m118 -54 c18 -18
27 -39 30 -74 5 -43 2 -53 -23 -82 -29 -35 -30 -35 28 -66 39 -21 28 -55 -18
-55 -30 0 -34 -3 -34 -27 0 -47 40 -113 90 -149 56 -40 76 -68 85 -118 l7 -36
-246 0 c-233 0 -246 1 -246 19 0 42 25 82 81 131 62 54 99 112 99 155 0 22 -4
25 -35 25 -19 0 -35 2 -35 4 0 2 -2 11 -5 19 -4 9 9 24 36 41 23 16 38 31 32
35 -24 16 -43 59 -43 99 0 37 6 50 35 79 33 33 39 35 86 31 37 -4 58 -12 76
-31z"/>
<path d="M5889 2141 c-48 -15 -69 -32 -89 -71 -25 -49 -25 -85 -1 -133 l19
-37 -29 -17 c-49 -29 -34 -98 23 -105 l27 -3 -23 -45 c-13 -26 -43 -60 -72
-82 -56 -43 -81 -84 -90 -151 l-7 -47 274 2 274 3 -2 39 c-4 58 -38 116 -92
157 -27 21 -57 56 -69 80 l-22 44 29 3 c19 2 32 11 40 28 18 39 13 58 -18 77
l-29 17 19 37 c23 45 24 71 3 123 -24 61 -103 99 -165 81z m118 -54 c18 -18
27 -39 30 -74 5 -43 2 -53 -23 -82 -29 -35 -30 -35 28 -66 39 -21 28 -55 -18
-55 -30 0 -34 -3 -34 -27 0 -47 40 -113 90 -149 56 -40 76 -68 85 -118 l7 -36
-246 0 c-233 0 -246 1 -246 19 0 42 25 82 81 131 62 54 99 112 99 155 0 22 -4
25 -35 25 -19 0 -35 2 -35 4 0 2 -2 11 -5 19 -4 9 9 24 36 41 23 16 38 31 32
35 -24 16 -43 59 -43 99 0 37 6 50 35 79 33 33 39 35 86 31 37 -4 58 -12 76
-31z"/>
<path d="M7909 2141 c-48 -15 -69 -32 -89 -71 -25 -49 -25 -85 -1 -133 l19
-37 -29 -17 c-49 -29 -34 -98 23 -105 l27 -3 -23 -45 c-13 -26 -43 -60 -72
-82 -56 -43 -81 -84 -90 -151 l-7 -47 274 2 274 3 -2 39 c-4 58 -38 116 -92
157 -27 21 -57 56 -69 80 l-22 44 29 3 c19 2 32 11 40 28 18 39 13 58 -18 77
l-29 17 19 37 c23 45 24 71 3 123 -24 61 -103 99 -165 81z m118 -54 c18 -18
27 -39 30 -74 5 -43 2 -53 -23 -82 -29 -35 -30 -35 28 -66 39 -21 28 -55 -18
-55 -30 0 -34 -3 -34 -27 0 -47 40 -113 90 -149 56 -40 76 -68 85 -118 l7 -36
-246 0 c-233 0 -246 1 -246 19 0 42 25 82 81 131 62 54 99 112 99 155 0 22 -4
25 -35 25 -19 0 -35 2 -35 4 0 2 -2 11 -5 19 -4 9 9 24 36 41 23 16 38 31 32
35 -24 16 -43 59 -43 99 0 37 6 50 35 79 33 33 39 35 86 31 37 -4 58 -12 76
-31z"/>
<path d="M813 2125 c-66 -28 -94 -130 -55 -197 15 -26 15 -30 2 -38 -50 -29
-54 -36 -41 -69 11 -25 19 -31 42 -31 34 0 36 -10 8 -67 -12 -26 -40 -57 -71
-79 -55 -41 -87 -97 -88 -151 l0 -33 265 0 265 0 0 33 c-1 54 -33 110 -88 151
-31 22 -59 53 -71 79 -28 57 -26 67 8 67 23 0 31 6 42 31 13 33 9 40 -40 69
-12 6 -12 13 2 43 61 127 -53 248 -180 192z m144 -38 c18 -18 27 -39 30 -74 5
-43 2 -53 -23 -82 -29 -35 -30 -35 28 -66 39 -21 28 -55 -18 -55 -30 0 -34 -3
-34 -27 0 -47 40 -113 90 -149 56 -40 76 -68 85 -118 l7 -36 -246 0 c-233 0
-246 1 -246 19 0 42 25 82 81 131 62 54 99 112 99 155 0 22 -4 25 -35 25 -19
0 -35 2 -35 4 0 2 -2 11 -5 19 -4 9 9 24 36 41 23 16 38 31 32 35 -24 16 -43
59 -43 99 0 37 6 50 35 79 33 33 39 35 86 31 37 -4 58 -12 76 -31z"/>
<path d="M2833 2125 c-66 -28 -94 -130 -55 -197 15 -26 15 -30 2 -38 -50 -29
-54 -36 -41 -69 11 -25 19 -31 42 -31 34 0 36 -10 8 -67 -12 -26 -40 -57 -71
-79 -55 -41 -87 -97 -88 -151 l0 -33 265 0 265 0 0 33 c-1 54 -33 110 -88 151
-31 22 -59 53 -71 79 -28 57 -26 67 8 67 23 0 31 6 42 31 13 33 9 40 -40 69
-12 6 -12 13 2 43 61 127 -53 248 -180 192z m144 -38 c18 -18 27 -39 30 -74 5
-43 2 -53 -23 -82 -29 -35 -30 -35 28 -66 39 -21 28 -55 -18 -55 -30 0 -34 -3
-34 -27 0 -47 40 -113 90 -149 56 -40 76 -68 85 -118 l7 -36 -246 0 c-233 0
-246 1 -246 19 0 42 25 82 81 131 62 54 99 112 99 155 0 22 -4 25 -35 25 -19
0 -35 2 -35 4 0 2 -2 11 -5 19 -4 9 9 24 36 41 23 16 38 31 32 35 -24 16 -43
59 -43 99 0 37 6 50 35 79 33 33 39 35 86 31 37 -4 58 -12 76 -31z"/>
<path d="M6873 2125 c-66 -28 -94 -130 -55 -197 15 -26 15 -30 2 -38 -50 -29
-54 -36 -41 -69 11 -25 19 -31 42 -31 34 0 36 -10 8 -67 -12 -26 -40 -57 -71
-79 -55 -41 -87 -97 -88 -151 l0 -33 265 0 265 0 0 33 c-1 54 -33 110 -88 151
-31 22 -59 53 -71 79 -28 57 -26 67 8 67 23 0 31 6 42 31 13 33 9 40 -40 69
-12 6 -12 13 2 43 61 127 -53 248 -180 192z m144 -38 c18 -18 27 -39 30 -74 5
-43 2 -53 -23 -82 -29 -35 -30 -35 28 -66 39 -21 28 -55 -18 -55 -30 0 -34 -3
-34 -27 0 -47 40 -113 90 -149 56 -40 76 -68 85 -118 l7 -36 -246 0 c-233 0
-246 1 -246 19 0 42 25 82 81 131 62 54 99 112 99 155 0 22 -4 25 -35 25 -19
0 -35 2 -35 4 0 2 -2 11 -5 19 -4 9 9 24 36 41 23 16 38 31 32 35 -24 16 -43
59 -43 99 0 37 6 50 35 79 33 33 39 35 86 31 37 -4 58 -12 76 -31z"/>
<path d="M4857 1284 c-4 -4 -7 -20 -7 -35 0 -24 -4 -28 -32 -31 -33 -3 -33 -3
-36 -65 l-3 -63 31 0 c21 0 30 -5 30 -16 0 -9 -6 -14 -13 -11 -8 3 -38 8 -68
12 -103 13 -178 -25 -218 -110 -43 -91 -23 -160 79 -268 33 -36 60 -67 60 -70
0 -3 -13 -19 -30 -35 -27 -27 -30 -37 -30 -91 l0 -61 301 0 302 0 -7 62 c-8
67 -27 108 -51 108 -26 0 -17 17 49 89 80 86 96 116 96 179 0 151 -123 229
-295 186 -19 -5 -25 -2 -25 10 0 11 9 16 30 16 l30 0 0 65 0 65 -34 0 c-32 0
-35 3 -38 33 -3 31 -4 32 -58 35 -31 2 -59 0 -63 -4z m103 -59 c0 -32 2 -35
30 -35 28 0 30 -2 30 -40 0 -38 -2 -40 -30 -40 -34 0 -34 -1 -20 -51 l10 -37
38 14 c52 18 137 17 179 -3 43 -20 80 -74 89 -129 9 -58 -18 -113 -101 -204
l-68 -75 -106 5 c-58 3 -149 3 -201 0 -92 -5 -96 -4 -115 20 -11 14 -45 53
-76 86 -62 69 -82 120 -70 174 11 47 23 69 60 104 26 25 42 30 91 34 33 2 81
-1 106 -7 26 -7 48 -10 51 -8 2 3 7 21 10 41 5 35 5 36 -26 36 -30 0 -31 2
-31 40 0 39 1 40 35 40 33 0 35 2 35 35 0 34 1 35 40 35 39 0 40 -1 40 -35z
m162 -625 c46 -13 68 -43 68 -92 l0 -38 -275 0 -275 0 0 33 c1 46 23 79 61 93
43 16 369 18 421 4z"/>
<path d="M4710 910 c-11 -11 -20 -29 -20 -39 0 -19 94 -141 108 -141 4 0 17 3
30 6 20 6 22 12 22 84 l0 78 -34 16 c-46 22 -82 20 -106 -4z m79 -11 c30 -11
31 -12 31 -75 0 -35 -3 -64 -7 -64 -18 0 -93 86 -93 107 0 17 17 37 36 43 1 0
15 -5 33 -11z"/>
<path d="M5018 914 c-27 -14 -28 -18 -28 -93 0 -73 2 -79 23 -85 31 -9 127 92
127 134 0 53 -64 76 -122 44z m83 -14 c28 -15 24 -31 -23 -89 -57 -70 -70 -67
-66 11 3 55 6 64 28 75 31 16 36 16 61 3z"/>
<path d="M2843 1264 c-36 -18 -56 -63 -44 -97 7 -18 -1 -32 -44 -79 -29 -31
-66 -83 -82 -115 -24 -49 -28 -70 -28 -139 0 -71 4 -88 31 -141 l31 -61 -37
-11 c-56 -17 -73 -42 -78 -117 l-4 -64 301 0 301 0 0 48 c0 73 -25 114 -84
133 -30 10 -44 19 -36 24 7 4 23 31 36 59 19 40 24 68 24 129 0 95 -27 161
-99 239 l-47 51 -17 -26 c-20 -31 -45 -120 -54 -194 -5 -46 -9 -53 -28 -53
-21 0 -21 2 -13 73 12 97 33 165 68 221 36 56 37 67 8 100 -30 33 -65 40 -105
20z m79 -31 c23 -21 23 -38 -1 -71 -41 -58 -81 -203 -81 -292 l0 -40 49 0 48
0 6 78 c6 77 32 172 47 172 10 0 71 -83 96 -130 12 -24 18 -58 18 -110 1 -80
-12 -124 -51 -177 l-23 -32 -140 0 -139 -1 -29 36 c-37 45 -52 95 -52 176 0
82 38 162 114 242 51 53 54 58 43 85 -22 60 47 108 95 64z m183 -637 c40 -17
55 -42 55 -90 l0 -36 -275 0 -275 0 0 26 c0 45 28 90 63 102 52 16 391 15 432
-2z"/>
<path d="M5853 1244 c-22 -22 -25 -32 -20 -67 5 -38 3 -44 -46 -97 -76 -82
-101 -138 -105 -235 -3 -65 0 -89 18 -130 12 -27 28 -58 37 -67 14 -15 12 -18
-24 -27 -58 -16 -83 -48 -90 -115 l-6 -56 297 0 296 0 0 54 c0 64 -24 101 -73
111 -17 4 -35 9 -39 11 -3 2 8 32 25 66 28 54 32 71 32 142 -1 97 -23 151 -95
229 l-47 51 -20 -39 c-24 -47 -43 -130 -43 -185 0 -38 -2 -40 -31 -40 l-31 0
7 68 c10 89 38 179 74 232 31 46 30 61 -2 98 -29 31 -80 30 -114 -4z m99 -11
c23 -21 23 -38 -1 -71 -41 -58 -81 -203 -81 -292 l0 -40 49 0 48 0 6 78 c6 77
32 172 47 172 10 0 71 -83 96 -130 12 -24 18 -58 18 -110 1 -80 -12 -124 -51
-177 l-23 -32 -140 0 -139 -1 -29 36 c-37 45 -52 95 -52 176 0 82 38 162 114
242 51 53 54 58 43 85 -22 60 47 108 95 64z m183 -637 c40 -17 55 -42 55 -90
l0 -36 -275 0 -275 0 0 26 c0 45 28 90 63 102 52 16 391 15 432 -2z"/>
<path d="M6806 1244 c-9 -8 -19 -27 -23 -42 -3 -15 -23 -46 -43 -69 -20 -23
-42 -61 -49 -85 -7 -23 -36 -75 -63 -114 -63 -91 -64 -127 -3 -161 58 -33 105
-31 130 7 11 16 29 30 39 30 25 0 106 39 106 51 0 5 7 9 15 9 26 0 -1 -38 -72
-104 -35 -32 -73 -77 -85 -99 -11 -22 -35 -54 -53 -71 -25 -24 -35 -44 -40
-79 -13 -82 -32 -77 299 -77 194 0 297 4 301 10 4 6 4 34 0 63 -6 40 -15 59
-39 82 l-32 30 18 60 c22 73 23 192 3 259 -36 119 -134 210 -252 232 -22 4
-53 22 -78 45 -47 43 -56 46 -79 23z m63 -48 c23 -24 47 -37 75 -42 92 -15
184 -81 224 -161 45 -88 51 -191 17 -306 l-16 -56 -200 -3 c-110 -2 -199 1
-199 6 0 22 46 79 105 131 69 61 85 91 66 132 l-12 26 -32 -30 c-39 -37 -68
-53 -98 -53 -12 0 -37 -16 -55 -36 -33 -34 -35 -35 -72 -23 -43 13 -72 36 -72
56 0 7 24 48 53 91 29 42 58 96 65 119 7 23 26 54 42 70 27 25 37 43 54 96 8
25 18 21 55 -17z m329 -605 c26 -14 42 -49 42 -92 l0 -29 -275 0 -275 0 0 36
c0 43 13 70 43 86 48 26 416 26 465 -1z"/>
<path d="M6806 1052 l-14 -28 34 4 c40 5 51 17 34 37 -19 23 -38 18 -54 -13z"/>
<path d="M1752 1238 c-7 -7 -12 -22 -12 -35 0 -13 -17 -42 -39 -66 -21 -23
-44 -60 -51 -82 -7 -22 -37 -77 -68 -122 -43 -65 -53 -87 -48 -108 8 -30 53
-60 104 -70 33 -6 39 -4 65 29 21 26 37 36 57 36 17 0 47 14 74 35 43 33 46
34 46 13 0 -14 -27 -47 -75 -93 -46 -45 -82 -89 -95 -118 -11 -25 -29 -49 -40
-52 -29 -9 -50 -56 -50 -110 l0 -45 295 0 295 0 0 45 c0 54 -22 101 -51 110
-15 5 -19 12 -15 28 3 12 13 57 23 100 29 133 -4 261 -90 349 -42 43 -121 85
-179 94 -23 4 -48 19 -69 40 -35 36 -57 42 -77 22z m67 -42 c23 -24 47 -37 75
-42 92 -15 184 -81 224 -161 45 -88 51 -191 17 -306 l-16 -56 -200 -3 c-110
-2 -199 1 -199 6 0 22 46 79 105 131 69 61 85 91 66 132 l-12 26 -32 -30 c-39
-37 -68 -53 -98 -53 -12 0 -37 -16 -55 -36 -33 -34 -35 -35 -72 -23 -43 13
-72 36 -72 56 0 7 24 48 53 91 29 42 58 96 65 119 7 23 26 54 42 70 27 25 37
43 54 96 8 25 18 21 55 -17z m329 -605 c26 -14 42 -49 42 -92 l0 -29 -275 0
-275 0 0 36 c0 43 13 70 43 86 48 26 416 26 465 -1z"/>
<path d="M1756 1052 l-14 -28 34 4 c40 5 51 17 34 37 -19 23 -38 18 -54 -13z"/>
<path d="M3729 1221 c-37 -37 -38 -79 -4 -119 21 -25 25 -40 24 -88 -1 -33 -4
-72 -8 -87 l-6 -28 -29 30 c-20 21 -27 36 -23 52 9 33 -18 88 -48 99 -43 16
-65 12 -97 -20 -26 -27 -30 -36 -25 -67 6 -37 32 -73 52 -73 7 0 23 -26 36
-57 12 -32 40 -98 62 -148 26 -61 35 -91 27 -93 -7 -3 -26 -16 -42 -31 -24
-21 -30 -37 -35 -83 l-6 -58 297 0 296 0 0 48 c0 58 -17 93 -53 110 -15 7 -27
16 -27 20 0 4 27 69 58 146 44 104 65 142 85 154 77 47 38 162 -54 162 -11 0
-34 -14 -51 -30 -25 -25 -29 -37 -26 -65 3 -29 -2 -40 -29 -67 l-33 -32 0 88
c0 73 3 92 20 113 29 37 27 97 -5 128 -71 72 -198 -28 -140 -111 13 -19 12
-28 -7 -88 -12 -36 -25 -66 -29 -66 -4 0 -17 29 -29 64 -16 50 -19 70 -11 85
20 37 13 90 -15 116 -38 35 -87 34 -125 -4z m111 -11 c23 -23 26 -67 6 -95
-11 -18 -9 -33 24 -124 20 -57 39 -100 42 -95 3 5 20 53 37 106 30 91 31 99
17 120 -21 30 -20 50 5 82 24 31 72 35 101 9 27 -24 24 -87 -4 -107 -21 -15
-22 -22 -19 -134 1 -64 4 -119 6 -121 2 -2 27 21 54 50 45 48 50 58 44 87 -4
26 0 38 18 58 42 45 109 20 109 -41 0 -27 -7 -39 -30 -57 -23 -16 -45 -57 -92
-170 l-62 -148 -190 3 -189 2 -60 145 c-33 80 -65 147 -71 149 -23 9 -56 52
-56 72 0 29 37 69 65 69 11 0 31 -7 43 -16 19 -13 22 -24 21 -60 -3 -41 1 -48
47 -95 l49 -50 6 58 c4 32 7 87 8 122 1 56 -2 65 -24 83 -31 24 -33 64 -3 95
27 29 71 30 98 3z m272 -610 c46 -13 68 -43 68 -92 l0 -38 -275 0 -275 0 0 24
c0 19 18 86 23 86 1 0 20 7 42 15 48 17 359 21 417 5z"/>
<path d="M824 1194 c-23 -5 -34 -30 -34 -76 0 -44 -25 -33 -36 15 -7 35 -13
42 -35 45 -15 2 -43 -4 -63 -12 -34 -14 -36 -17 -36 -63 1 -72 15 -122 45
-153 l27 -28 -17 -151 c-10 -83 -21 -151 -26 -151 -4 0 -21 -12 -38 -26 -29
-24 -31 -31 -31 -90 l0 -64 295 0 295 0 0 64 c0 59 -2 66 -31 90 -17 14 -34
26 -38 26 -5 0 -16 68 -26 151 l-17 151 27 28 c30 31 44 81 45 153 0 46 -2 49
-36 63 -20 8 -48 14 -63 12 -22 -3 -28 -10 -35 -45 -13 -56 -32 -55 -39 2 -2
26 -7 48 -9 51 -8 7 -100 13 -124 8z m112 -76 c9 -50 11 -53 39 -53 27 0 31 4
39 43 9 43 27 52 70 36 35 -14 13 -174 -26 -186 -11 -3 -325 -2 -365 1 -21 2
-41 54 -44 112 -3 68 3 79 45 79 31 0 34 -3 42 -42 8 -39 12 -43 39 -43 28 0
30 3 39 53 l9 52 52 0 52 0 9 -52z m89 -190 c9 -9 40 -286 33 -293 -3 -3 -88
-4 -189 -3 l-185 3 14 115 c20 177 20 178 45 183 33 8 274 3 282 -5z m65 -331
c39 -13 60 -46 60 -94 l0 -33 -275 0 -275 0 0 33 c0 48 21 81 60 94 47 16 383
16 430 0z"/>
<path d="M7870 1158 c0 -76 -32 -108 -45 -45 -14 68 -14 69 -48 62 -78 -15
-84 -21 -80 -78 7 -97 14 -120 43 -147 l28 -26 -14 -130 c-20 -171 -20 -171
-53 -189 -32 -16 -51 -59 -51 -116 l0 -39 295 0 295 0 0 39 c0 57 -19 100 -51
116 -33 18 -33 18 -53 189 l-14 130 28 26 c29 27 36 50 43 147 4 57 -2 63 -80
78 -34 7 -34 6 -48 -62 -13 -63 -45 -31 -45 45 l0 32 -75 0 -75 0 0 -32z m136
-40 c9 -50 11 -53 39 -53 27 0 31 4 39 43 9 43 27 52 70 36 35 -14 13 -174
-26 -186 -11 -3 -325 -2 -365 1 -21 2 -41 54 -44 112 -3 68 3 79 45 79 31 0
34 -3 42 -42 8 -39 12 -43 39 -43 28 0 30 3 39 53 l9 52 52 0 52 0 9 -52z m89
-190 c9 -9 40 -286 33 -293 -3 -3 -88 -4 -189 -3 l-185 3 14 115 c20 177 20
178 45 183 33 8 274 3 282 -5z m65 -331 c39 -13 60 -46 60 -94 l0 -33 -275 0
-275 0 0 33 c0 48 21 81 60 94 47 16 383 16 430 0z"/>
<path d="M165 7930 c-8 -14 3 -30 21 -30 8 0 14 9 14 20 0 21 -24 28 -35 10z"/>
<path d="M160 7860 c0 -16 5 -21 23 -18 12 2 22 10 22 18 0 8 -10 16 -22 18
-18 3 -23 -2 -23 -18z"/>
<path d="M164 5855 c-4 -9 -2 -21 4 -27 15 -15 44 -1 40 19 -4 23 -36 29 -44
8z"/>
<path d="M177 3860 c-16 -22 -16 -25 -1 -28 21 -5 26 2 22 30 l-3 23 -18 -25z"/>
<path d="M1854 155 c-9 -23 4 -47 23 -43 11 2 19 14 21 31 3 22 -1 27 -18 27
-11 0 -23 -7 -26 -15z"/>
<path d="M3867 156 c-10 -26 4 -47 27 -44 15 2 21 10 21 28 0 29 -38 41 -48
16z"/>
<path d="M830 120 c0 -5 9 -10 20 -10 11 0 20 5 20 10 0 6 -9 10 -20 10 -11 0
-20 -4 -20 -10z"/>
<path d="M4875 160 c-4 -6 5 -10 19 -10 14 0 26 5 26 10 0 6 -9 10 -19 10 -11
0 -23 -4 -26 -10z"/>
<path d="M6897 156 c-10 -26 4 -47 27 -44 15 2 21 10 21 28 0 29 -38 41 -48
16z"/>
</g>
</svg>
